<svg width="37" height="37" viewBox="0 0 37 37" fill="none" xmlns="http://www.w3.org/2000/svg">
    <path d="M12.8585 6.32255C13.955 3.1136 18.3889 3.01641 19.689 6.03099L19.799 6.32438L21.2788 10.6519C21.6179 11.6443 22.1659 12.5525 22.8859 13.3152C23.6058 14.0778 24.481 14.6772 25.4522 15.0729L25.8501 15.2214L30.1776 16.6994C33.3866 17.7959 33.4838 22.2298 30.471 23.5298L30.1776 23.6399L25.8501 25.1196C24.8574 25.4586 23.9488 26.0065 23.1858 26.7264C22.4229 27.4464 21.8232 28.3216 21.4273 29.2931L21.2788 29.6892L19.8008 34.0185C18.7043 37.2275 14.2704 37.3247 12.9722 34.3119L12.8585 34.0185L11.3805 29.691C11.0416 28.6982 10.4937 27.7897 9.77376 27.0267C9.0538 26.2637 8.17855 25.6641 7.20707 25.2682L6.811 25.1196L2.4835 23.6417C-0.72728 22.5452 -0.824465 18.1113 2.19011 16.8131L2.4835 16.6994L6.811 15.2214C7.80345 14.8823 8.71163 14.3343 9.47429 13.6143C10.2369 12.8944 10.8363 12.0192 11.232 11.0479L11.3805 10.6519L12.8585 6.32255ZM16.3297 7.50711L14.8517 11.8346C14.3353 13.3479 13.4953 14.7305 12.3901 15.8861C11.2848 17.0417 9.941 17.9425 8.45215 18.5257L7.99373 18.6926L3.66623 20.1705L7.99373 21.6485C9.50707 22.1649 10.8897 23.0049 12.0452 24.1101C13.2008 25.2154 14.1016 26.5592 14.6848 28.048L14.8517 28.5065L16.3297 32.834L17.8076 28.5065C18.324 26.9931 19.164 25.6105 20.2693 24.4549C21.3745 23.2994 22.7183 22.3986 24.2072 21.8153L24.6656 21.6503L28.9931 20.1705L24.6656 18.6926C23.1522 18.1762 21.7696 17.3361 20.6141 16.2309C19.4585 15.1257 18.5577 13.7819 17.9745 12.293L17.8094 11.8346L16.3297 7.50711ZM30.9991 3.31324e-07C31.3422 -4.32698e-07 31.6784 0.0962286 31.9694 0.277751C32.2605 0.459274 32.4948 0.718809 32.6458 1.02686L32.7338 1.24141L33.3756 3.12277L35.2588 3.76456C35.6026 3.88135 35.9039 4.09758 36.1247 4.38584C36.3455 4.67409 36.4757 5.0214 36.4989 5.38374C36.522 5.74608 36.4371 6.10714 36.2549 6.42117C36.0726 6.7352 35.8013 6.98806 35.4752 7.1477L35.2588 7.23572L33.3774 7.87751L32.7356 9.7607C32.6186 10.1044 32.4022 10.4056 32.1139 10.6262C31.8255 10.8468 31.4782 10.9768 31.1158 10.9998C30.7535 11.0227 30.3925 10.9376 30.0786 10.7553C29.7647 10.5729 29.512 10.3014 29.3525 9.97525L29.2645 9.7607L28.6227 7.87934L26.7395 7.23755C26.3957 7.12076 26.0943 6.90453 25.8736 6.61627C25.6528 6.32802 25.5226 5.98071 25.4994 5.61837C25.4762 5.25603 25.5611 4.89497 25.7434 4.58094C25.9256 4.2669 26.197 4.01405 26.5231 3.85441L26.7395 3.76639L28.6208 3.1246L29.2626 1.24141C29.3863 0.879115 29.6202 0.564607 29.9316 0.34198C30.243 0.119353 30.6163 -0.000229727 30.9991 3.31324e-07Z" fill="#0F7378"/>
</svg>

