<svg width="40" height="40" viewBox="0 0 40 40" fill="none" xmlns="http://www.w3.org/2000/svg">
    <path d="M25.2142 0.00175924C26.8262 0.00189987 28.38 0.60498 29.5699 1.69245C30.7599 2.77993 31.5 4.27314 31.6448 5.87858C33.1151 6.03808 34.5054 6.62863 35.641 7.576C36.7766 8.52336 37.6068 9.78526 38.0272 11.2031C38.4476 12.6209 38.4394 14.1313 38.0037 15.5445C37.5681 16.9577 36.7243 18.2105 35.5786 19.1456C37.1362 19.9121 38.3987 21.1693 39.1718 22.7236C39.9448 24.2779 40.1855 26.0432 39.8568 27.7478C39.5281 29.4523 38.6482 31.0015 37.3527 32.157C36.0571 33.3125 34.4176 34.0102 32.6866 34.1426L32.6199 34.4593C32.3333 35.796 31.662 37.0197 30.6887 37.9798C29.7154 38.9399 28.4826 39.5945 27.1421 39.863C25.8015 40.1316 24.4117 40.0023 23.1436 39.4911C21.8756 38.9799 20.7847 38.1092 20.0053 36.986C19.2259 38.1092 18.1352 38.98 16.8673 39.4912C15.5994 40.0025 14.2096 40.132 12.8691 39.8636C11.5286 39.5953 10.2958 38.9409 9.32238 37.981C8.349 37.0211 7.67754 35.7976 7.39064 34.461L7.32396 34.1443C5.59128 34.0147 3.94939 33.3186 2.65165 32.1633C1.35392 31.0081 0.472467 29.4579 0.143313 27.7519C-0.18584 26.046 0.0556012 24.2792 0.83038 22.7241C1.60516 21.169 2.87021 19.9121 4.43033 19.1473C3.28458 18.2122 2.44083 16.9593 2.00516 15.5462C1.56948 14.133 1.56133 12.6225 1.98172 11.2047C2.4021 9.78693 3.23227 8.52503 4.36786 7.57766C5.50345 6.6303 6.89378 6.03974 8.36407 5.88024C8.48126 4.5733 8.99389 3.33308 9.83369 2.32478C10.6735 1.31647 11.8006 0.587951 13.0649 0.236249C14.3291 -0.115454 15.6706 -0.073641 16.9105 0.356117C18.1504 0.785875 19.2299 1.58318 20.0053 2.64183C20.6047 1.82313 21.3888 1.15737 22.2938 0.69864C23.1989 0.23991 24.1994 0.00115001 25.2142 0.00175924ZM14.7964 2.50182C13.7465 2.50182 12.7396 2.91887 11.9972 3.66122C11.2547 4.40357 10.8377 5.41042 10.8377 6.46026V7.08527C10.8377 7.4168 10.706 7.73475 10.4715 7.96918C10.2371 8.20361 9.91909 8.33531 9.58753 8.33531H9.17082C7.8446 8.33531 6.5727 8.8621 5.63492 9.79981C4.69714 10.7375 4.1703 12.0093 4.1703 13.3354C4.1703 14.6616 4.69714 15.9334 5.63492 16.8711C6.5727 17.8088 7.8446 18.3356 9.17082 18.3356H10.421C10.7525 18.3356 11.0705 18.4673 11.3049 18.7017C11.5394 18.9361 11.6711 19.2541 11.6711 19.5856C11.6711 19.9171 11.5394 20.2351 11.3049 20.4695C11.0705 20.7039 10.7525 20.8356 10.421 20.8356H7.92069C6.48395 20.8356 5.10606 21.4063 4.09013 22.4222C3.07421 23.438 2.50346 24.8158 2.50346 26.2524C2.50346 27.6891 3.07421 29.0668 4.09013 30.0827C5.10606 31.0985 6.48395 31.6692 7.92069 31.6692H8.3374C8.5862 31.6692 8.82935 31.7434 9.03572 31.8824C9.24209 32.0214 9.40231 32.2187 9.49586 32.4493L9.5592 32.6576L9.83256 33.9376C10.0675 35.0256 10.6964 35.9883 11.5983 36.6407C12.5001 37.2931 13.6114 37.5892 14.7183 37.4719C15.8252 37.3547 16.8498 36.8324 17.5949 36.0056C18.3401 35.1787 18.7533 34.1057 18.7551 32.9926V6.46026C18.7551 5.41042 18.3381 4.40357 17.5957 3.66122C16.8533 2.91887 15.8463 2.50182 14.7964 2.50182ZM25.2142 2.50182C24.1642 2.50182 23.1573 2.91887 22.4149 3.66122C21.6725 4.40357 21.2554 5.41042 21.2554 6.46026V32.9926C21.2553 34.1066 21.6674 35.1812 22.4125 36.0094C23.1576 36.8376 24.1828 37.3608 25.2907 37.4782C26.3986 37.5955 27.5107 37.2988 28.4127 36.645C29.3148 35.9913 29.943 35.0269 30.1763 33.9376L30.4514 32.6576L30.5147 32.4493C30.6083 32.2187 30.7685 32.0214 30.9748 31.8824C31.1812 31.7434 31.4244 31.6692 31.6732 31.6692H32.0899C33.5266 31.6692 34.9045 31.0985 35.9204 30.0827C36.9364 29.0668 37.5071 27.6891 37.5071 26.2524C37.5071 24.8158 36.9364 23.438 35.9204 22.4222C34.9045 21.4063 33.5266 20.8356 32.0899 20.8356H29.5896C29.2581 20.8356 28.9401 20.7039 28.7056 20.4695C28.4712 20.2351 28.3395 19.9171 28.3395 19.5856C28.3395 19.2541 28.4712 18.9361 28.7056 18.7017C28.9401 18.4673 29.2581 18.3356 29.5896 18.3356H30.8397C32.166 18.3356 33.4379 17.8088 34.3756 16.8711C35.3134 15.9334 35.8403 14.6616 35.8403 13.3354C35.8403 12.0093 35.3134 10.7375 34.3756 9.79981C33.4379 8.8621 32.166 8.33531 30.8397 8.33531H30.423C30.0915 8.33531 29.7735 8.20361 29.5391 7.96918C29.3046 7.73475 29.1729 7.4168 29.1729 7.08527V6.46026C29.1729 5.41042 28.7558 4.40357 28.0134 3.66122C27.271 2.91887 26.2641 2.50182 25.2142 2.50182Z" fill="#0F7378"/>
</svg>
