<svg width="27" height="30" viewBox="0 0 27 30" fill="none" xmlns="http://www.w3.org/2000/svg">
    <path d="M14.5875 22.9125C13.8625 22.1875 13.5 21.3 13.5 20.25C13.5 19.2 13.8625 18.3125 14.5875 17.5875C15.3125 16.8625 16.2 16.5 17.25 16.5C18.3 16.5 19.1875 16.8625 19.9125 17.5875C20.6375 18.3125 21 19.2 21 20.25C21 21.3 20.6375 22.1875 19.9125 22.9125C19.1875 23.6375 18.3 24 17.25 24C16.2 24 15.3125 23.6375 14.5875 22.9125ZM3 30C2.175 30 1.469 29.7065 0.882 29.1195C0.295 28.5325 0.001 27.826 0 27V6C0 5.175 0.294 4.469 0.882 3.882C1.47 3.295 2.176 3.001 3 3H4.5V1.5C4.5 1.075 4.644 0.719005 4.932 0.432005C5.22 0.145005 5.576 0.00100517 6 5.17241e-06C6.424 -0.000994827 6.7805 0.143005 7.0695 0.432005C7.3585 0.721005 7.502 1.077 7.5 1.5V3H19.5V1.5C19.5 1.075 19.644 0.719005 19.932 0.432005C20.22 0.145005 20.576 0.00100517 21 5.17241e-06C21.424 -0.000994827 21.7805 0.143005 22.0695 0.432005C22.3585 0.721005 22.502 1.077 22.5 1.5V3H24C24.825 3 25.5315 3.294 26.1195 3.882C26.7075 4.47 27.001 5.176 27 6V27C27 27.825 26.7065 28.5315 26.1195 29.1195C25.5325 29.7075 24.826 30.001 24 30H3ZM3 27H24V12H3V27ZM3 9H24V6H3V9Z" fill="#0F7378"/>
</svg>
