<svg width="27" height="31" viewBox="0 0 27 31" fill="none" xmlns="http://www.w3.org/2000/svg">
<path d="M1.34961 15.7107H25.6504C25.9836 15.7107 26.176 15.7118 26.3125 15.7332C26.3736 15.7427 26.4022 15.7534 26.4131 15.7585L26.4238 15.7673C26.4329 15.779 26.4605 15.8229 26.4785 15.9802C26.4991 16.1602 26.5 16.4059 26.5 16.7898V24.6843C26.5 26.1854 26.4991 27.2681 26.4043 28.0925C26.3103 28.9091 26.1309 29.3967 25.8291 29.7498C25.5368 30.0916 25.1481 30.2859 24.4844 30.3904C23.7972 30.4984 22.8888 30.4998 21.5996 30.4998H5.40039C4.11116 30.4998 3.20284 30.4984 2.51562 30.3904C1.85188 30.2859 1.46319 30.0916 1.1709 29.7498C0.869109 29.3967 0.689671 28.9091 0.595703 28.0925C0.500873 27.2681 0.5 26.1854 0.5 24.6843V16.7898C0.5 16.4069 0.50089 16.1614 0.521484 15.9812C0.539537 15.8234 0.567171 15.7789 0.576172 15.7673C0.579724 15.7632 0.581349 15.7617 0.587891 15.7585C0.59889 15.7534 0.626706 15.7425 0.686523 15.7332C0.822813 15.7118 1.01556 15.7107 1.34961 15.7107ZM5.40039 4.65796H21.5996C22.8888 4.65796 23.7972 4.65928 24.4844 4.76733C25.1481 4.87177 25.5368 5.0661 25.8291 5.40796C26.131 5.7611 26.3103 6.24917 26.4043 7.06616C26.4991 7.89054 26.5 8.97265 26.5 10.4734C26.5 10.8573 26.4991 11.1029 26.4785 11.283C26.4605 11.4401 26.4329 11.4841 26.4238 11.4958C26.4205 11.4998 26.4196 11.5015 26.4131 11.5046C26.4022 11.5098 26.3736 11.5205 26.3125 11.53C26.176 11.5514 25.9836 11.5525 25.6504 11.5525H1.34961C1.01556 11.5525 0.822813 11.5514 0.686523 11.53C0.626645 11.5206 0.598861 11.5098 0.587891 11.5046L0.576172 11.4958C0.567118 11.4842 0.539504 11.4395 0.521484 11.282C0.500901 11.1018 0.5 10.8562 0.5 10.4734C0.5 8.97265 0.50091 7.89054 0.595703 7.06616C0.689674 6.24917 0.868968 5.7611 1.1709 5.40796C1.46319 5.0661 1.85188 4.87177 2.51562 4.76733C3.20284 4.65928 4.11119 4.65796 5.40039 4.65796Z" fill="#0F7378" stroke="#0F7378"/>
<path d="M6.75 1V5.73684ZM20.25 1V5.73684Z" fill="#0F7378"/>
<path d="M6.75 1V5.73684M20.25 1V5.73684" stroke="#0F7378" stroke-width="2" stroke-linecap="round"/>
</svg>
