<svg width="39" height="41" viewBox="0 0 39 41" fill="none" xmlns="http://www.w3.org/2000/svg">
    <path d="M8.92857 24.1111H1V1H38V24.1111H30.0714M29.1905 41C29.1904 37.513 30.1492 34.0943 31.9602 31.1244L32.7143 29.8889V29.4444H6.28571V29.8889L7.03981 31.1244C8.8508 34.0943 9.80961 37.513 9.80952 41M26.5476 25V18.7778C26.5476 18.7778 23.9048 17 19.5 17C15.0952 17 12.4524 18.7778 12.4524 18.7778V25M19.2357 13.4444C19.2357 13.4444 16.4167 11.6667 16.4167 9.44444C16.4167 8.62027 16.7411 7.82985 17.3187 7.24707C17.8963 6.66429 18.6797 6.33689 19.4965 6.33689C20.3133 6.33689 21.0967 6.66429 21.6742 7.24707C22.2518 7.82985 22.5763 8.62027 22.5763 9.44444C22.5763 11.6667 19.7643 13.4444 19.7643 13.4444H19.2357Z" stroke="#0F7378" stroke-width="2"/>
</svg>
