<svg width="63" height="42" viewBox="0 0 63 42" fill="none" xmlns="http://www.w3.org/2000/svg">
    <path d="M10.5281 39.8813L10.5274 40.8813H10.5281L10.5281 39.8813ZM7.42728 36.7986L6.42728 36.7988V36.7989L7.42728 36.7986ZM7.42522 24.2292H6.42522V24.2293L7.42522 24.2292ZM7.84581 24.0345L8.50115 23.2792L8.495 23.2739L8.48877 23.2686L7.84581 24.0345ZM11.7424 27.4153L11.0871 28.1707L11.0933 28.176L11.0996 28.1813L11.7424 27.4153ZM12.2414 27.5967V26.5967H12.2413L12.2414 27.5967ZM36.2397 27.5967L36.2404 26.5967H36.2397V27.5967ZM39.3405 30.6783H40.3405V30.6777L39.3405 30.6783ZM39.3405 36.7986L40.3405 36.7993V36.7986H39.3405ZM36.2397 39.8802L36.2398 40.8802H36.2404L36.2397 39.8802ZM54.4395 16.8529L53.7836 17.6077L53.7926 17.6156L53.8018 17.6232L54.4395 16.8529ZM54.8622 16.6572L55.8622 16.6616V16.6572H54.8622ZM54.8622 4.09804H55.8622H54.8622ZM26.0652 1V0V1ZM22.9479 10.2511H23.9479H22.9479ZM26.0652 13.3491V14.3491V13.3491ZM50.6171 13.5315L51.273 12.7767L51.2654 12.7701L51.2577 12.7636L50.6171 13.5315ZM2.81316 13.554L2.15419 12.8019L2.15392 12.8021L2.81316 13.554ZM7.55098 11.6659L7.59093 12.6651L7.5913 12.6651L7.55098 11.6659ZM11.4796 13.1361L12.1669 12.4097L12.1668 12.4096L11.4796 13.1361ZM13.2186 16.3755L12.2333 16.546L12.2333 16.5462L13.2186 16.3755ZM13.5949 18.5474L13.5942 19.5474L14.7832 19.5482L14.5802 18.3767L13.5949 18.5474ZM1.14111 18.5392L0.149795 18.4077L-0.000183344 19.5384L1.14045 19.5392L1.14111 18.5392ZM1.46996 16.0599L2.46127 16.1914L2.46128 16.1914L1.46996 16.0599ZM51.0057 35.4422L50.3475 34.6894L50.3473 34.6896L51.0057 35.4422ZM54.2385 34.1544L54.2791 35.1536L54.2793 35.1536L54.2385 34.1544ZM55.6951 34.095L55.6544 33.0958L55.6543 33.0958L55.6951 34.095ZM58.5939 35.1789L59.2812 34.4525L59.281 34.4524L58.5939 35.1789ZM60.8669 39.4141L59.8815 39.5844L59.8815 39.5845L60.8669 39.4141ZM61.1411 41L61.1405 42L62.329 42.0008L62.1265 40.8296L61.1411 41ZM48.6873 40.9918L47.696 40.8603L47.546 41.9911L48.6867 41.9918L48.6873 40.9918ZM48.9038 39.3598L47.9125 39.2282L47.9125 39.2283L48.9038 39.3598ZM0.245645 17.2956C0.120084 17.8334 0.454288 18.3712 0.992111 18.4967C1.52993 18.6223 2.06771 18.2881 2.19327 17.7502L1.21946 17.5229L0.245645 17.2956ZM12.6159 17.7502C12.7415 18.2881 13.2793 18.6223 13.8171 18.4967C14.3549 18.3712 14.6891 17.8334 14.5636 17.2956L13.5897 17.5229L12.6159 17.7502ZM47.7269 39.7461C47.6014 40.2839 47.9356 40.8217 48.4734 40.9473C49.0112 41.0728 49.549 40.7386 49.6745 40.2008L48.7007 39.9735L47.7269 39.7461ZM60.0972 40.2008C60.2228 40.7386 60.7605 41.0728 61.2984 40.9473C61.8362 40.8217 62.1704 40.2839 62.0448 39.7461L61.071 39.9735L60.0972 40.2008ZM10.5281 39.8813L10.5288 38.8813C9.96941 38.8809 9.43433 38.6598 9.04076 38.2685L8.33573 38.9777L7.6307 39.6869C8.39998 40.4517 9.44199 40.8806 10.5274 40.8813L10.5281 39.8813ZM8.33573 38.9777L9.04076 38.2685C8.64739 37.8775 8.42746 37.3485 8.42728 36.7983L7.42728 36.7986L6.42728 36.7989C6.42764 37.8833 6.86121 38.9219 7.6307 39.6869L8.33573 38.9777ZM7.42522 24.2292H8.42522C8.42522 24.8714 7.68077 25.2016 7.20284 24.8004L7.84581 24.0345L8.48877 23.2686C7.67891 22.5888 6.42522 23.1547 6.42522 24.2292H7.42522ZM7.84581 24.0345L7.19047 24.7899L11.0871 28.1707L11.7424 27.4153L12.3978 26.66L8.50115 23.2792L7.84581 24.0345ZM11.7424 27.4153L11.0996 28.1813C11.4197 28.45 11.8243 28.5967 12.2415 28.5967L12.2414 27.5967L12.2413 26.5967C12.2932 26.5967 12.3442 26.6149 12.3853 26.6494L11.7424 27.4153ZM12.2414 27.5967V28.5967H36.2397V27.5967V26.5967H12.2414V27.5967ZM36.2397 27.5967L36.2391 28.5967C36.7983 28.597 37.3333 28.818 37.7268 29.2092L38.4317 28.4999L39.1366 27.7906C38.3674 27.0261 37.3256 26.5974 36.2404 26.5967L36.2397 27.5967ZM38.4317 28.4999L37.7268 29.2092C38.1202 29.6001 38.3402 30.1288 38.3405 30.679L39.3405 30.6783L40.3405 30.6777C40.3398 29.5935 39.9061 28.5553 39.1366 27.7906L38.4317 28.4999ZM39.3405 30.6783H38.3405V36.7986H39.3405H40.3405V30.6783H39.3405ZM39.3405 36.7986L38.3405 36.7979C38.3402 37.3481 38.1202 37.8768 37.7268 38.2678L38.4317 38.9771L39.1366 39.6863C39.9061 38.9217 40.3398 37.8834 40.3405 36.7993L39.3405 36.7986ZM38.4317 38.9771L37.7268 38.2678C37.3333 38.6589 36.7983 38.8799 36.2391 38.8802L36.2397 39.8802L36.2404 40.8802C37.3256 40.8795 38.3674 40.4508 39.1366 39.6863L38.4317 38.9771ZM36.2397 39.8802L36.2397 38.8802L10.5281 38.8813L10.5281 39.8813L10.5281 40.8813L36.2398 40.8802L36.2397 39.8802ZM54.4395 16.8529L53.8018 17.6232C53.9853 17.7751 54.2077 17.8714 54.4431 17.9018L54.5712 16.9101L54.6994 15.9183C54.8378 15.9362 54.9689 15.9929 55.0772 16.0826L54.4395 16.8529ZM54.5712 16.9101L54.4431 17.9018C54.6784 17.9322 54.9178 17.8955 55.1334 17.7957L54.7133 16.8883L54.2931 15.9808C54.4201 15.922 54.561 15.9004 54.6994 15.9183L54.5712 16.9101ZM54.7133 16.8883L55.1334 17.7957C55.3491 17.6959 55.5327 17.5367 55.6621 17.3359L54.8215 16.7942L53.9809 16.2525C54.0576 16.1336 54.1661 16.0396 54.2931 15.9808L54.7133 16.8883ZM54.8215 16.7942L55.6621 17.3359C55.7915 17.1351 55.8611 16.9012 55.8622 16.6616L54.8622 16.6572L53.8622 16.6528C53.8628 16.5104 53.9042 16.3716 53.9809 16.2525L54.8215 16.7942ZM54.8622 16.6572H55.8622V4.09804H54.8622H53.8622V16.6572H54.8622ZM54.8622 4.09804H55.8622C55.8622 3.00917 55.4269 1.96615 54.654 1.1981L53.9491 1.9074L53.2442 2.61669C53.6406 3.01064 53.8622 3.54362 53.8622 4.09804H54.8622ZM53.9491 1.9074L54.654 1.1981C53.8814 0.430262 52.8348 0 51.7449 0V1V2C52.3084 2 52.8476 2.22254 53.2442 2.61669L53.9491 1.9074ZM51.7449 1V0H26.0652V1V2H51.7449V1ZM26.0652 1V0C24.9752 0 23.9286 0.430261 23.156 1.1981L23.8609 1.9074L24.5658 2.61669C24.9624 2.22254 25.5016 2 26.0652 2V1ZM23.8609 1.9074L23.156 1.1981C22.3832 1.96615 21.9479 3.00917 21.9479 4.09804H22.9479H23.9479C23.9479 3.54362 24.1694 3.01064 24.5658 2.61669L23.8609 1.9074ZM22.9479 4.09804H21.9479V10.2511H22.9479H23.9479V4.09804H22.9479ZM22.9479 10.2511H21.9479C21.9479 11.34 22.3832 12.383 23.156 13.151L23.8609 12.4417L24.5658 11.7325C24.1694 11.3385 23.9479 10.8055 23.9479 10.2511H22.9479ZM23.8609 12.4417L23.156 13.151C23.9286 13.9189 24.9752 14.3491 26.0652 14.3491V13.3491V12.3491C25.5016 12.3491 24.9624 12.1266 24.5658 11.7325L23.8609 12.4417ZM26.0652 13.3491V14.3491H50.1151V13.3491V12.3491H26.0652V13.3491ZM50.1151 13.3491V14.3491C50.0631 14.3491 50.014 14.3307 49.9765 14.2994L50.6171 13.5315L51.2577 12.7636C50.9377 12.4967 50.534 12.3491 50.1151 12.3491V13.3491ZM50.6171 13.5315L49.9612 14.2864L53.7836 17.6077L54.4395 16.8529L55.0954 16.098L51.273 12.7767L50.6171 13.5315ZM10.4972 4.20459H9.49717C9.49717 5.34389 8.56615 6.27805 7.4046 6.27805V7.27805V8.27805C9.65901 8.27805 11.4972 6.46013 11.4972 4.20459H10.4972ZM7.4046 7.27805V6.27805C6.24305 6.27805 5.31203 5.34389 5.31203 4.20459H4.31203H3.31203C3.31203 6.46013 5.15019 8.27805 7.4046 8.27805V7.27805ZM4.31203 4.20459H5.31203C5.31203 3.06529 6.24305 2.13113 7.4046 2.13113V1.13113V0.131134C5.15019 0.131134 3.31203 1.94905 3.31203 4.20459H4.31203ZM7.4046 1.13113V2.13113C8.56615 2.13113 9.49717 3.06529 9.49717 4.20459H10.4972H11.4972C11.4972 1.94905 9.65901 0.131134 7.4046 0.131134V1.13113ZM57.9784 26.6552H56.9784C56.9784 27.7945 56.0474 28.7286 54.8859 28.7286V29.7286V30.7286C57.1403 30.7286 58.9784 28.9107 58.9784 26.6552H57.9784ZM54.8859 29.7286V28.7286C53.7243 28.7286 52.7933 27.7945 52.7933 26.6552H51.7933H50.7933C50.7933 28.9107 52.6315 30.7286 54.8859 30.7286V29.7286ZM51.7933 26.6552H52.7933C52.7933 25.5159 53.7243 24.5817 54.8859 24.5817V23.5817V22.5817C52.6315 22.5817 50.7933 24.3996 50.7933 26.6552H51.7933ZM54.8859 23.5817V24.5817C56.0474 24.5817 56.9784 25.5159 56.9784 26.6552H57.9784H58.9784C58.9784 24.3996 57.1403 22.5817 54.8859 22.5817V23.5817ZM2.81316 13.554L3.47214 14.3062C4.61385 13.306 6.06819 12.726 7.59093 12.6651L7.55098 11.6659L7.51103 10.6667C5.5326 10.7458 3.64096 11.4993 2.15419 12.8019L2.81316 13.554ZM7.55098 11.6659L7.5913 12.6651C8.17881 12.6414 8.76501 12.7353 9.315 12.9411L9.66548 12.0046L10.016 11.068C9.21619 10.7687 8.36424 10.6323 7.51067 10.6667L7.55098 11.6659ZM9.66548 12.0046L9.315 12.9411C9.86498 13.1469 10.3673 13.4604 10.7923 13.8625L11.4796 13.1361L12.1668 12.4096C11.5472 11.8234 10.8157 11.3673 10.016 11.068L9.66548 12.0046ZM11.4796 13.1361L10.7923 13.8624C11.5511 14.5805 12.056 15.5217 12.2333 16.546L13.2186 16.3755L14.204 16.205C13.9529 14.7541 13.2381 13.4234 12.1669 12.4097L11.4796 13.1361ZM13.2186 16.3755L12.2333 16.5462L12.6096 18.7181L13.5949 18.5474L14.5802 18.3767L14.204 16.2048L13.2186 16.3755ZM13.5949 18.5474L13.5956 17.5474L1.14177 17.5392L1.14111 18.5392L1.14045 19.5392L13.5942 19.5474L13.5949 18.5474ZM1.14111 18.5392L2.13243 18.6707L2.46127 16.1914L1.46996 16.0599L0.478639 15.9284L0.149795 18.4077L1.14111 18.5392ZM1.46996 16.0599L2.46128 16.1914C2.55781 15.4634 2.91637 14.7935 3.47241 14.306L2.81316 13.554L2.15392 12.8021C1.23481 13.6079 0.639119 14.7182 0.478635 15.9285L1.46996 16.0599ZM51.0057 35.4422L51.664 36.1949C52.3891 35.5609 53.3122 35.1928 54.2791 35.1536L54.2385 34.1544L54.1979 33.1552C52.7764 33.2129 51.417 33.7541 50.3475 34.6894L51.0057 35.4422ZM54.2385 34.1544L54.2793 35.1536L55.7359 35.0941L55.6951 34.095L55.6543 33.0958L54.1977 33.1552L54.2385 34.1544ZM55.6951 34.095L55.7358 35.0941C56.1343 35.0779 56.532 35.1415 56.905 35.281L57.2553 34.3443L57.6055 33.4076C56.9826 33.1747 56.3191 33.0687 55.6544 33.0958L55.6951 34.095ZM57.2553 34.3443L56.905 35.281C57.2781 35.4204 57.6186 35.6329 57.9067 35.9054L58.5939 35.1789L59.281 34.4524C58.7983 33.9958 58.2284 33.6406 57.6055 33.4076L57.2553 34.3443ZM58.5939 35.1789L57.9065 35.9052C58.9466 36.8894 59.6387 38.1798 59.8815 39.5844L60.8669 39.4141L61.8523 39.2438C61.5358 37.4125 60.6337 35.7324 59.2812 34.4525L58.5939 35.1789ZM60.8669 39.4141L59.8815 39.5845L60.1557 41.1704L61.1411 41L62.1265 40.8296L61.8523 39.2437L60.8669 39.4141ZM61.1411 41L61.1418 40L48.688 39.9918L48.6873 40.9918L48.6867 41.9918L61.1405 42L61.1411 41ZM48.6873 40.9918L49.6786 41.1233L49.8951 39.4913L48.9038 39.3598L47.9125 39.2283L47.696 40.8603L48.6873 40.9918ZM48.9038 39.3598L49.8951 39.4914C50.0643 38.2168 50.6918 37.0455 51.6642 36.1948L51.0057 35.4422L50.3473 34.6896C49.0104 35.8592 48.1457 37.4715 47.9125 39.2282L48.9038 39.3598ZM1.21946 17.5229C2.19327 17.7502 2.19323 17.7504 2.1932 17.7506C2.19319 17.7506 2.19316 17.7507 2.19314 17.7508C2.19312 17.7509 2.19311 17.751 2.19311 17.7509C2.19312 17.7509 2.19319 17.7506 2.19332 17.7501C2.19358 17.749 2.19409 17.7468 2.19485 17.7437C2.19636 17.7374 2.19885 17.7271 2.20234 17.713C2.2093 17.6848 2.2202 17.6415 2.23502 17.585C2.26468 17.472 2.30992 17.3067 2.37065 17.104C2.49263 16.697 2.67461 16.1479 2.91511 15.573C3.15729 14.9942 3.44824 14.415 3.78105 13.9345C4.12131 13.4434 4.45545 13.1283 4.75703 12.9784L4.31203 12.0829L3.86703 11.1874C3.13775 11.5497 2.56989 12.1708 2.13701 12.7956C1.69668 13.4313 1.34334 14.148 1.07009 14.8011C0.795163 15.4582 0.590573 16.077 0.454837 16.5299C0.386714 16.7572 0.335305 16.9449 0.30054 17.0773C0.283146 17.1436 0.269881 17.1962 0.260741 17.2332C0.25617 17.2517 0.252627 17.2663 0.250112 17.2767C0.248855 17.282 0.247854 17.2862 0.247109 17.2893C0.246737 17.2909 0.246429 17.2922 0.246185 17.2933C0.246063 17.2938 0.245957 17.2942 0.245867 17.2946C0.245822 17.2948 0.245766 17.295 0.245744 17.2951C0.245693 17.2954 0.245645 17.2956 1.21946 17.5229ZM4.31203 12.0829L4.75703 12.9784C6.53843 12.0932 8.27077 12.0932 10.0522 12.9784L10.4972 12.0829L10.9422 11.1874C8.60014 10.0236 6.20906 10.0236 3.86703 11.1874L4.31203 12.0829ZM10.4972 12.0829L10.0522 12.9784C10.3537 13.1283 10.6879 13.4434 11.0281 13.9345C11.361 14.415 11.6519 14.9942 11.8941 15.573C12.1346 16.1479 12.3166 16.697 12.4385 17.104C12.4993 17.3067 12.5445 17.472 12.5742 17.585C12.589 17.6415 12.5999 17.6848 12.6069 17.713C12.6103 17.7271 12.6128 17.7374 12.6144 17.7437C12.6151 17.7468 12.6156 17.749 12.6159 17.7501C12.616 17.7506 12.6161 17.7509 12.6161 17.7509C12.6161 17.751 12.6161 17.7509 12.6161 17.7508C12.616 17.7507 12.616 17.7506 12.616 17.7506C12.616 17.7504 12.6159 17.7502 13.5897 17.5229C14.5636 17.2956 14.5635 17.2954 14.5635 17.2951C14.5634 17.295 14.5634 17.2948 14.5633 17.2946C14.5632 17.2942 14.5631 17.2938 14.563 17.2933C14.5628 17.2922 14.5625 17.2909 14.5621 17.2893C14.5613 17.2862 14.5603 17.282 14.5591 17.2767C14.5566 17.2663 14.553 17.2517 14.5485 17.2332C14.5393 17.1962 14.5261 17.1436 14.5087 17.0773C14.4739 16.9449 14.4225 16.7572 14.3544 16.5299C14.2186 16.077 14.014 15.4582 13.7391 14.8011C13.4659 14.148 13.1125 13.4313 12.6722 12.7956C12.2393 12.1708 11.6715 11.5497 10.9422 11.1874L10.4972 12.0829ZM48.7007 39.9735C49.6745 40.2008 49.6745 40.201 49.6745 40.2011C49.6745 40.2012 49.6744 40.2013 49.6744 40.2014C49.6744 40.2015 49.6744 40.2015 49.6744 40.2015C49.6744 40.2015 49.6745 40.2012 49.6746 40.2006C49.6749 40.1995 49.6754 40.1974 49.6761 40.1942C49.6776 40.1879 49.6801 40.1776 49.6836 40.1635C49.6906 40.1353 49.7015 40.0921 49.7163 40.0356C49.746 39.9226 49.7912 39.7573 49.8519 39.5546C49.9739 39.1476 50.1559 38.5984 50.3964 38.0236C50.6386 37.4448 50.9295 36.8655 51.2623 36.3851C51.6026 35.8939 51.9367 35.5788 52.2383 35.429L51.7933 34.5335L51.3483 33.6379C50.619 34.0003 50.0512 34.6213 49.6183 35.2462C49.178 35.8818 48.8246 36.5986 48.5514 37.2517C48.2764 37.9088 48.0718 38.5275 47.9361 38.9805C47.868 39.2078 47.8166 39.3954 47.7818 39.5279C47.7644 39.5941 47.7512 39.6467 47.742 39.6837C47.7374 39.7022 47.7339 39.7168 47.7314 39.7273C47.7301 39.7325 47.7291 39.7368 47.7284 39.7399C47.728 39.7415 47.7277 39.7428 47.7275 39.7438C47.7273 39.7443 47.7272 39.7448 47.7271 39.7452C47.7271 39.7454 47.727 39.7456 47.727 39.7457C47.727 39.7459 47.7269 39.7461 48.7007 39.9735ZM51.7933 34.5335L52.2383 35.429C54.0197 34.5438 55.752 34.5438 57.5334 35.429L57.9784 34.5335L58.4234 33.6379C56.0814 32.4741 53.6903 32.4741 51.3483 33.6379L51.7933 34.5335ZM57.9784 34.5335L57.5334 35.429C57.835 35.5788 58.1692 35.8939 58.5094 36.3851C58.8422 36.8655 59.1332 37.4448 59.3754 38.0236C59.6159 38.5984 59.7978 39.1476 59.9198 39.5546C59.9806 39.7573 60.0258 39.9226 60.0555 40.0356C60.0703 40.0921 60.0812 40.1353 60.0881 40.1635C60.0916 40.1776 60.0941 40.1879 60.0956 40.1942C60.0964 40.1974 60.0969 40.1995 60.0972 40.2006C60.0973 40.2012 60.0974 40.2015 60.0974 40.2015C60.0974 40.2015 60.0974 40.2015 60.0973 40.2014C60.0973 40.2013 60.0973 40.2012 60.0973 40.2011C60.0972 40.201 60.0972 40.2008 61.071 39.9735C62.0448 39.7461 62.0448 39.7459 62.0447 39.7457C62.0447 39.7456 62.0447 39.7454 62.0446 39.7452C62.0445 39.7448 62.0444 39.7443 62.0443 39.7438C62.044 39.7428 62.0437 39.7415 62.0434 39.7399C62.0426 39.7368 62.0416 39.7325 62.0404 39.7273C62.0378 39.7168 62.0343 39.7022 62.0297 39.6837C62.0206 39.6467 62.0073 39.5941 61.9899 39.5279C61.9552 39.3954 61.9038 39.2078 61.8356 38.9805C61.6999 38.5275 61.4953 37.9088 61.2204 37.2517C60.9471 36.5986 60.5938 35.8818 60.1535 35.2462C59.7206 34.6213 59.1527 34.0003 58.4234 33.6379L57.9784 34.5335ZM7.42728 36.7986L8.42728 36.7984L8.42522 24.229L7.42522 24.2292L6.42522 24.2293L6.42728 36.7988L7.42728 36.7986Z" fill="#0F7378"/>
</svg>
