<svg width="21" height="11" viewBox="0 0 21 11" fill="none" xmlns="http://www.w3.org/2000/svg">
<path d="M0.153283 5.81621C0.0559499 5.71888 0.0049499 5.60388 0.000283237 5.47121C-0.00438343 5.33855 0.0486166 5.21755 0.159283 5.10821C0.269283 5.00155 0.387283 4.94754 0.513283 4.94621C0.639283 4.94488 0.757283 4.99888 0.867283 5.10821L4.76328 9.00421L5.26328 8.50421C5.34128 8.48021 5.42895 8.47821 5.52628 8.49821C5.62362 8.51821 5.71795 8.57421 5.80928 8.66621C5.91928 8.77621 5.97362 8.89421 5.97228 9.02021C5.96962 9.14555 5.91328 9.26321 5.80328 9.37321L5.32328 9.85421C5.16128 10.0122 4.97262 10.0922 4.75728 10.0942C4.54195 10.0955 4.35328 10.0155 4.19128 9.85421L0.153283 5.81621ZM10.4073 8.99921L19.2533 0.153212C19.3506 0.0552116 19.4656 0.00421176 19.5983 0.000211765C19.731 -0.00378824 19.8519 0.0488784 19.9613 0.158212C20.0679 0.268878 20.122 0.386879 20.1233 0.512212C20.1253 0.638212 20.0713 0.756212 19.9613 0.866212L10.9733 9.85421C10.8113 10.0162 10.6226 10.0972 10.4073 10.0972C10.192 10.0972 10.0036 10.0162 9.84228 9.85421L5.80328 5.81621C5.70995 5.72288 5.65995 5.60888 5.65328 5.47421C5.64662 5.34088 5.69662 5.21888 5.80328 5.10821C5.91395 4.99821 6.03295 4.94321 6.16028 4.94321C6.28762 4.94321 6.40662 4.99821 6.51728 5.10821L10.4073 8.99921ZM14.3053 0.872212L10.0683 5.10821C9.97495 5.20155 9.86162 5.25154 9.72828 5.25821C9.59362 5.26488 9.47128 5.21488 9.36128 5.10821C9.25062 4.99821 9.19528 4.87955 9.19528 4.75221C9.19528 4.62421 9.25062 4.50521 9.36128 4.39521L13.5973 0.158212C13.6906 0.0648784 13.8046 0.0148783 13.9393 0.00821166C14.0726 0.001545 14.1946 0.0515451 14.3053 0.158212C14.4153 0.268878 14.4703 0.387878 14.4703 0.515212C14.4703 0.642545 14.4153 0.761545 14.3053 0.872212Z" fill="black"/>
</svg>
