<svg width="17" height="20" viewBox="0 0 17 20" fill="none" xmlns="http://www.w3.org/2000/svg">
<path d="M0.75 14.25V3.75C0.75 2.95435 1.06607 2.19129 1.62868 1.62868C2.19129 1.06607 2.95435 0.75 3.75 0.75H14.75C15.0152 0.75 15.2696 0.855357 15.4571 1.04289C15.6446 1.23043 15.75 1.48478 15.75 1.75V14.25H3.625M0.75 14.245V16.625" stroke="black" stroke-width="1.5" stroke-linecap="round" stroke-linejoin="round"/>
<path d="M14.75 19.25H3.25C2.58696 19.25 1.95107 18.9866 1.48223 18.5178C1.01339 18.0489 0.75 17.413 0.75 16.75C0.75 16.087 1.01339 15.4511 1.48223 14.9822C1.95107 14.5134 2.58696 14.25 3.25 14.25H15.75V18.25C15.75 18.5152 15.6446 18.7696 15.4571 18.9571C15.2696 19.1446 15.0152 19.25 14.75 19.25Z" stroke="black" stroke-width="1.5" stroke-linecap="round" stroke-linejoin="round"/>
</svg>
