<svg width="45" height="40" viewBox="0 0 45 40" fill="none" xmlns="http://www.w3.org/2000/svg">
    <path d="M4.04 40C2.88833 40 1.9275 39.615 1.1575 38.845C0.3875 38.075 0.00166667 37.1133 0 35.96V4.04C0 2.88833 0.385833 1.9275 1.1575 1.1575C1.92917 0.3875 2.88917 0.00166667 4.0375 0H15.48C16.63 0 17.5908 0.385833 18.3625 1.1575C19.1342 1.92917 19.52 2.89 19.52 4.04V35.9625C19.52 37.1125 19.1342 38.0733 18.3625 38.845C17.5908 39.6167 16.63 40.0017 15.48 40H4.04ZM29.52 40C28.37 40 27.4092 39.615 26.6375 38.845C25.8658 38.075 25.48 37.1142 25.48 35.9625V4.0375C25.48 2.8875 25.8658 1.9275 26.6375 1.1575C27.4092 0.3875 28.37 0.00166667 29.52 0H40.9625C42.1125 0 43.0725 0.385833 43.8425 1.1575C44.6125 1.92917 44.9983 2.89 45 4.04V35.9625C45 37.1125 44.6142 38.0733 43.8425 38.845C43.0708 39.6167 42.1108 40.0017 40.9625 40H29.52ZM4.04 37.5H15.48C15.93 37.5 16.2992 37.3558 16.5875 37.0675C16.8758 36.7792 17.02 36.4108 17.02 35.9625V4.0375C17.02 3.58917 16.875 3.22083 16.585 2.9325C16.2983 2.64417 15.93 2.5 15.48 2.5H4.04C3.59 2.5 3.22083 2.64417 2.9325 2.9325C2.64417 3.22083 2.5 3.59 2.5 4.04V35.9625C2.5 36.4108 2.64417 36.7792 2.9325 37.0675C3.22083 37.3558 3.59 37.5 4.04 37.5ZM29.52 37.5H40.9625C41.4108 37.5 41.7792 37.3558 42.0675 37.0675C42.3558 36.7792 42.5 36.4108 42.5 35.9625V4.0375C42.5 3.58917 42.3558 3.22083 42.0675 2.9325C41.7792 2.64417 41.4108 2.5 40.9625 2.5H29.52C29.07 2.5 28.7008 2.64417 28.4125 2.9325C28.1242 3.22083 27.98 3.59 27.98 4.04V35.9625C27.98 36.4108 28.1242 36.7792 28.4125 37.0675C28.7008 37.3558 29.07 37.5 29.52 37.5ZM13.1 23.82C12.8617 23.58 12.5642 23.46 12.2075 23.46H7.2075C6.8525 23.46 6.55583 23.58 6.3175 23.82C6.0775 24.0583 5.9575 24.3558 5.9575 24.7125C5.9575 25.0675 6.0775 25.3642 6.3175 25.6025C6.55583 25.8425 6.8525 25.9625 7.2075 25.9625H12.2075C12.5642 25.9625 12.8617 25.8425 13.1 25.6025C13.3383 25.3625 13.4575 25.0658 13.4575 24.7125C13.4575 24.3592 13.3383 24.0617 13.1 23.82ZM38.6775 23.82C38.4392 23.58 38.1417 23.46 37.785 23.46H32.7375C32.3825 23.46 32.0933 23.58 31.87 23.82C31.6483 24.0583 31.5375 24.3558 31.5375 24.7125C31.5375 25.0675 31.6567 25.3642 31.895 25.6025C32.1333 25.8408 32.4308 25.9608 32.7875 25.9625H37.7875C38.1425 25.9625 38.4392 25.8425 38.6775 25.6025C38.9175 25.3642 39.0375 25.0675 39.0375 24.7125C39.0375 24.3558 38.9175 24.0583 38.6775 23.82ZM13.4625 17.6925C13.4625 17.3375 13.3425 17.04 13.1025 16.8C12.8625 16.56 12.5658 16.4408 12.2125 16.4425H7.2125C6.85583 16.4425 6.55833 16.5617 6.32 16.8C6.08167 17.0383 5.9625 17.3358 5.9625 17.6925C5.9625 18.0492 6.08167 18.3467 6.32 18.585C6.55833 18.8233 6.85583 18.9425 7.2125 18.9425H12.2125C12.5675 18.9425 12.8642 18.8233 13.1025 18.585C13.3408 18.3467 13.4608 18.0492 13.4625 17.6925ZM39.0375 17.6925C39.0375 17.3375 38.9183 17.04 38.68 16.8C38.4417 16.5617 38.145 16.4425 37.79 16.4425H32.74C32.385 16.4425 32.0958 16.5617 31.8725 16.8C31.6492 17.0383 31.5383 17.3358 31.54 17.6925C31.5417 18.0492 31.6608 18.3467 31.8975 18.585C32.1342 18.8233 32.4317 18.9425 32.79 18.9425H37.79C38.145 18.9425 38.4417 18.8233 38.68 18.585C38.92 18.3467 39.0375 18.0492 39.0375 17.6925ZM13.4625 10.625C13.4625 10.27 13.3425 9.9725 13.1025 9.7325C12.8625 9.4925 12.5658 9.37333 12.2125 9.375H7.2125C6.85583 9.375 6.55833 9.49417 6.32 9.7325C6.08167 9.9725 5.9625 10.27 5.9625 10.625C5.9625 10.98 6.08167 11.2775 6.32 11.5175C6.55833 11.7575 6.85583 11.8767 7.2125 11.875H12.2125C12.5675 11.875 12.8642 11.7558 13.1025 11.5175C13.3408 11.2792 13.4608 10.9817 13.4625 10.625ZM39.0375 10.625C39.0375 10.27 38.9183 9.9725 38.68 9.7325C38.4417 9.49417 38.145 9.375 37.79 9.375H32.74C32.385 9.375 32.0958 9.49417 31.8725 9.7325C31.6508 9.9725 31.54 10.27 31.54 10.625C31.54 10.98 31.6592 11.2775 31.8975 11.5175C32.1358 11.7575 32.4333 11.8767 32.79 11.875H37.79C38.145 11.875 38.4417 11.7558 38.68 11.5175C38.92 11.2792 39.0375 10.9817 39.0375 10.625ZM4.04 37.5H2.5H17.02H4.04ZM29.52 37.5H27.98H42.5H29.52Z" fill="#0F7378"/>
</svg>
