<svg width="40" height="40" viewBox="0 0 40 40" fill="none" xmlns="http://www.w3.org/2000/svg">
    <path d="M39.9967 19.9975V19.9875C39.9967 14.0694 37.4202 8.75465 33.3289 5.09981L33.3089 5.08315C33.2583 5.02871 33.2019 4.98008 33.1406 4.93815L33.1372 4.93649C29.5033 1.74624 24.8305 -0.00892935 19.995 3.41629e-05C14.9421 3.41629e-05 10.3291 1.87662 6.81277 4.97315L6.83443 4.95482C6.79218 4.98712 6.75312 5.0234 6.71778 5.06315C4.60392 6.93512 2.91189 9.23654 1.75377 11.8117C0.595647 14.387 -0.0021388 17.1788 5.74974e-06 20.0025C5.74974e-06 25.9189 2.57312 31.2337 6.66111 34.8902L6.68111 34.9068C6.7343 34.9667 6.79349 35.0208 6.85776 35.0685L6.8611 35.0702C10.4939 38.2561 15.1632 40.0087 19.995 40C24.8494 40.0074 29.5387 38.2385 33.1789 35.0268L33.1572 35.0452C35.3078 33.1754 37.0317 30.8654 38.2122 28.2716C39.3928 25.6778 40.0025 22.8607 40 20.0108V19.9992L39.9967 19.9975ZM32.5606 33.0053C31.5696 32.2044 30.5043 31.5002 29.3792 30.902L29.2709 30.8487C30.2925 27.9038 30.9074 24.509 30.9657 20.9775V20.9508H38.0668C37.828 25.5198 35.8615 29.8271 32.5656 33.0003L32.5606 33.0053ZM20.9516 30.497C23.0897 30.612 25.0879 31.082 26.9311 31.847L26.8111 31.8037C25.3346 35.1702 23.2564 37.4834 20.9516 37.9917V30.497ZM20.9516 28.5905V20.9508H29.0642C28.9997 24.1144 28.4512 27.2495 27.4377 30.2471L27.5027 30.0287C25.434 29.1771 23.2332 28.691 20.9982 28.5921L20.9533 28.5905H20.9516ZM20.9516 19.0442V11.4045C23.2467 11.3001 25.5063 10.7977 27.6294 9.9196L27.4977 9.96794C28.4226 12.6662 28.9909 15.776 29.0642 19.0092V19.0442H20.9516ZM20.9516 9.49796V2.00661C23.2564 2.51493 25.3346 4.81816 26.8111 8.19468C25.0879 8.91131 23.0897 9.37963 20.9999 9.49629L20.9516 9.49796ZM25.7079 2.83158C27.6722 3.48535 29.5089 4.47313 31.1374 5.75145L31.0991 5.72145C30.3608 6.30143 29.5325 6.84807 28.6593 7.32305L28.566 7.36971C27.8621 5.70337 26.8917 4.16273 25.6929 2.80825L25.7079 2.82658V2.83158ZM19.0417 2.01161V9.49796C16.9861 9.39322 14.9636 8.93661 13.0622 8.14801L13.1822 8.19135C14.6654 4.82482 16.7403 2.51326 19.0451 2.00495L19.0417 2.01161ZM11.429 7.36472C10.5259 6.87828 9.66517 6.31689 8.85593 5.68645L8.89593 5.71645C10.4769 4.47559 12.2563 3.51093 14.1588 2.86324L14.2855 2.82491C13.1192 4.14357 12.1691 5.63871 11.4707 7.25472L11.429 7.36472ZM19.0451 11.4029V19.0425H10.9324C11.0058 15.7744 11.574 12.6645 12.564 9.74794L12.499 9.96627C14.5677 10.8138 16.7668 11.2991 19.0001 11.4012L19.0451 11.4029ZM19.0451 20.9491V28.5888C16.7499 28.6932 14.4904 29.1957 12.3673 30.0737L12.499 30.0254C11.574 27.3288 11.0058 24.2173 10.9324 20.9841V20.9491H19.0451ZM19.0451 30.4954V37.9867C16.7403 37.4784 14.6621 35.1752 13.1856 31.7987C14.9088 31.082 16.9069 30.6154 18.9967 30.4987L19.0451 30.4954ZM14.2955 37.1618C12.3329 36.507 10.4967 35.5217 8.86593 34.2485L8.90593 34.2785C9.6442 33.6986 10.4725 33.1519 11.3457 32.6769L11.439 32.6303C12.1376 34.297 13.1079 35.8361 14.3105 37.1851L14.2955 37.1684V37.1618ZM28.5676 32.6286C29.5342 33.1536 30.3625 33.6986 31.1407 34.3069L31.1007 34.2769C29.5198 35.5177 27.7404 36.4824 25.8378 37.1301L25.7112 37.1684C26.8774 35.8503 27.8274 34.3557 28.526 32.7403L28.5676 32.632V32.6286ZM38.0668 19.0442H30.9657C30.9136 15.596 30.3186 12.1776 29.2026 8.91465L29.2709 9.14464C30.448 8.52462 31.5626 7.79236 32.5989 6.95807L32.5589 6.98806C35.8492 10.1484 37.8167 14.4403 38.0635 18.9959L38.0668 19.0442ZM7.43605 6.98973C8.39597 7.7697 9.47421 8.48467 10.6174 9.09297L10.7258 9.1463C9.70419 12.0912 9.08924 15.486 9.03092 19.0175V19.0442H1.92818C2.16698 14.4752 4.13352 10.1679 7.42938 6.99473L7.43605 6.98973ZM1.92984 20.9508H9.03092C9.08303 24.399 9.67805 27.8174 10.7941 31.0804L10.7258 30.8504C9.47421 31.5153 8.39764 32.2303 7.39772 33.0369L7.43772 33.0069C4.14742 29.8466 2.17996 25.5547 1.93318 20.9991L1.93151 20.9525L1.92984 20.9508Z" fill="#0F7378"/>
</svg>
