<svg width="52" height="42" viewBox="0 0 52 42" fill="none" xmlns="http://www.w3.org/2000/svg">
    <path d="M3.5 31V9C3.5 6.19974 3.5 4.79961 4.04497 3.73005C4.52433 2.78924 5.28924 2.02433 6.23005 1.54497C7.29961 1 8.69974 1 11.5 1H40.5C43.3003 1 44.7004 1 45.77 1.54497C46.7108 2.02433 47.4757 2.78924 47.955 3.73005C48.5 4.79961 48.5 6.19974 48.5 9V31H35.1569C34.5454 31 34.2396 31 33.9519 31.0691C33.6968 31.1303 33.453 31.2313 33.2293 31.3684C32.977 31.523 32.7608 31.7392 32.3284 32.1716L32.1716 32.3284C31.7392 32.7608 31.523 32.977 31.2707 33.1316C31.047 33.2687 30.8032 33.3697 30.5481 33.4309C30.2604 33.5 29.9546 33.5 29.3431 33.5H22.6569C22.0454 33.5 21.7396 33.5 21.4519 33.4309C21.1968 33.3697 20.953 33.2687 20.7293 33.1316C20.477 32.977 20.2608 32.7608 19.8284 32.3284L19.6716 32.1716C19.2392 31.7392 19.023 31.523 18.7707 31.3684C18.547 31.2313 18.3032 31.1303 18.0481 31.0691C17.7604 31 17.4546 31 16.8431 31H3.5ZM3.5 31C2.11929 31 1 32.1193 1 33.5V34.3333C1 35.8833 1 36.6583 1.17037 37.2941C1.63271 39.0196 2.98044 40.3673 4.7059 40.8296C5.34174 41 6.11671 41 7.66667 41H44.3333C45.8833 41 46.6583 41 47.2941 40.8296C49.0196 40.3673 50.3673 39.0196 50.8296 37.2941C51 36.6583 51 35.8833 51 34.3333C51 33.5584 51 33.1709 50.9148 32.853C50.6836 31.9902 50.0098 31.3164 49.147 31.0852C48.8291 31 48.4416 31 47.6667 31H46" stroke="#0F7378" stroke-width="2" stroke-linecap="round" stroke-linejoin="round"/>
</svg>
