<svg width="20" height="20" viewBox="0 0 20 20" fill="none" xmlns="http://www.w3.org/2000/svg">
<path d="M9.49998 18.5C7.74404 18.5053 6.05023 17.8505 4.7545 16.6654C3.45876 15.4803 2.65575 13.8515 2.50471 12.1021C2.35368 10.3527 2.86567 8.61036 3.93913 7.22074C5.01259 5.83112 6.56911 4.8957 8.29998 4.6C14 3.5 15.5 2.98 17.5 0.5C18.5 2.5 19.5 4.68 19.5 8.5C19.5 14 14.72 18.5 9.49998 18.5Z" stroke="#0F7378" stroke-linecap="round" stroke-linejoin="round"/>
<path d="M0.5 19.5C0.5 16.5 2.35 14.14 5.58 13.5C8 13.02 10.5 11.5 11.5 10.5" stroke="#0F7378" stroke-linecap="round" stroke-linejoin="round"/>
</svg>
