<svg width="23" height="32" viewBox="0 0 23 32" fill="none" xmlns="http://www.w3.org/2000/svg">
    <path d="M4.68783 2.97323C5.15733 1.89474 5.39283 1.35624 5.85932 1.05324C6.32582 0.750244 6.92432 0.750244 8.11531 0.750244H14.3853C15.5778 0.750244 16.1733 0.750244 16.6413 1.05324C17.1078 1.35624 17.3433 1.89474 17.8113 2.97323L20.8412 9.92119C21.5882 11.6342 21.9617 12.4922 21.6272 13.2257C21.2912 13.9592 20.3912 14.2547 18.5927 14.8442L11.2503 17.2501L3.90784 14.8442C2.10785 14.2547 1.20785 13.9592 0.873353 13.2242C0.538855 12.4922 0.912353 11.6342 1.65935 9.92119L4.68783 2.97323Z" stroke="#0F7378" stroke-width="1.5" stroke-linecap="round" stroke-linejoin="round"/>
    <path d="M11.2503 17.2501L6.00034 1.50024M16.5003 15.0002L11.2503 0.750244M12.4158 18.2251L13.6038 20.6206C13.7048 20.8003 13.8425 20.9567 14.0079 21.0797C14.1733 21.2027 14.3627 21.2896 14.5638 21.3346L16.7163 21.6946C18.0918 21.9271 18.4158 22.9336 17.4243 23.9281L15.7503 25.6156C15.6038 25.7815 15.4963 25.9781 15.4356 26.1909C15.3748 26.4037 15.3624 26.6274 15.3993 26.8456L15.8793 28.9366C16.2573 30.5896 15.3858 31.2301 13.9353 30.3646L11.9178 29.1601C11.5518 28.9426 10.9518 28.9426 10.5813 29.1601L8.56233 30.3646C7.11784 31.2301 6.24034 30.5836 6.61834 28.9366L7.09834 26.8471C7.13541 26.6286 7.12314 26.4047 7.0624 26.1916C7.00167 25.9785 6.89401 25.7817 6.74734 25.6156L5.07335 23.9281C4.08785 22.9336 4.40585 21.9271 5.78135 21.6961L7.93533 21.3361C8.13497 21.2897 8.3227 21.2021 8.48647 21.0789C8.65025 20.9557 8.78645 20.7996 8.88633 20.6206L10.0743 18.2251C10.7223 16.9246 11.7753 16.9246 12.4158 18.2251Z" stroke="#0F7378" stroke-width="1.5" stroke-linecap="round" stroke-linejoin="round"/>
</svg>
