<svg width="40" height="40" viewBox="0 0 40 40" fill="none" xmlns="http://www.w3.org/2000/svg">
    <path d="M17.728 29.8284L12.74 32.9847C12.4587 33.1597 12.1813 33.1704 11.908 33.017C11.6347 32.8635 11.498 32.6185 11.498 32.2819V25.9754C11.498 25.6388 11.6347 25.3931 11.908 25.2383C12.1813 25.0835 12.4587 25.0942 12.74 25.2706L17.724 28.4249C17.9813 28.5878 18.11 28.8193 18.11 29.1196C18.11 29.4198 17.982 29.6567 17.726 29.8304M22 15.1858C20.504 15.1858 19.2327 14.6581 18.186 13.6026C17.1393 12.5471 16.616 11.2648 16.616 9.75566C16.616 8.2465 17.1393 6.96217 18.186 5.90267C19.2327 4.84316 20.504 4.31274 22 4.31139H23C23.256 4.31139 23.4673 4.39553 23.634 4.56381C23.8007 4.7321 23.884 4.9448 23.884 5.20194C23.884 5.45907 23.8007 5.67313 23.634 5.8441C23.4673 6.01508 23.256 6.09922 23 6.09653H22C20.996 6.09653 20.1427 6.45261 19.44 7.16478C18.7373 7.87695 18.3853 8.74125 18.384 9.75767C18.3827 10.7741 18.734 11.635 19.438 12.3405C20.142 13.0459 20.996 13.398 22 13.3966H23C23.256 13.3966 23.4673 13.4807 23.634 13.649C23.8007 13.8173 23.884 14.03 23.884 14.2872C23.884 14.5443 23.8007 14.7577 23.634 14.9273C23.4673 15.0969 23.256 15.1817 23 15.1817L22 15.1858ZM30 15.1858H29C28.744 15.1858 28.5327 15.101 28.366 14.9313C28.1993 14.7631 28.116 14.5504 28.116 14.2932C28.116 14.0361 28.1993 13.8227 28.366 13.6531C28.5327 13.4834 28.744 13.3986 29 13.3986H30C31.004 13.3986 31.8573 13.0425 32.56 12.3304C33.2627 11.6182 33.6147 10.7546 33.616 9.7395C33.6173 8.72442 33.2653 7.86282 32.56 7.15469C31.8547 6.44655 31.0013 6.09518 30 6.10057H29C28.744 6.10057 28.5327 6.01575 28.366 5.84612C28.1993 5.67784 28.116 5.46513 28.116 5.208C28.116 4.95086 28.1993 4.73748 28.366 4.56785C28.5327 4.39822 28.744 4.31341 29 4.31341H30C31.496 4.31341 32.7673 4.84114 33.814 5.89661C34.8607 6.95207 35.384 8.23371 35.384 9.74152C35.384 11.2493 34.8607 12.5337 33.814 13.5945C32.7673 14.6554 31.496 15.1858 30 15.1858ZM28.5 10.6422H23.5C23.244 10.6422 23.0327 10.5574 22.866 10.3877C22.6993 10.2194 22.616 10.0067 22.616 9.7496C22.616 9.49246 22.6993 9.27908 22.866 9.10945C23.0327 8.93982 23.244 8.85501 23.5 8.85501H28.5C28.756 8.85501 28.9673 8.93915 29.134 9.10743C29.3007 9.27571 29.384 9.48842 29.384 9.74556C29.384 10.0027 29.3007 10.2167 29.134 10.3877C28.9673 10.5587 28.756 10.6428 28.5 10.6401M27.084 22.2132V20.1939H36.768C37.128 20.1939 37.4233 20.0774 37.654 19.8445C37.8847 19.6116 38 19.3141 38 18.9519V3.25929C38 2.89715 37.8847 2.59962 37.654 2.36672C37.4233 2.13382 37.1287 2.01737 36.77 2.01737H15.23C14.8713 2.01737 14.5767 2.13382 14.346 2.36672C14.1153 2.59962 14 2.89849 14 3.26333V19.0287H12V3.26333C12 2.36537 12.3167 1.59733 12.95 0.959209C13.5833 0.321083 14.3433 0.00134626 15.23 0H36.77C37.658 0 38.418 0.319736 39.05 0.959209C39.682 1.59868 39.9987 2.36537 40 3.25929V18.9499C40 19.8465 39.6833 20.6139 39.05 21.252C38.418 21.8915 37.658 22.2112 36.77 22.2112L27.084 22.2132ZM3.232 40C2.34267 40 1.58134 39.6803 0.948004 39.0408C0.314671 38.4013 -0.00132913 37.6346 4.20168e-06 36.7407V21.5145C4.20168e-06 20.6179 0.316671 19.8506 0.950004 19.2124C1.582 18.5716 2.342 18.2512 3.23 18.2512H24.77C25.658 18.2512 26.418 18.5709 27.05 19.2104C27.6833 19.8499 28 20.6179 28 21.5145V36.7387C28 37.6353 27.6833 38.4027 27.05 39.0408C26.4167 39.6789 25.6567 39.9987 24.77 40H3.232ZM3.232 37.9806H24.77C25.1287 37.9806 25.4233 37.8642 25.654 37.6313C25.8847 37.3984 26 37.1008 26 36.7387V21.5145C26 21.1511 25.8847 20.8535 25.654 20.622C25.4233 20.3891 25.1287 20.2726 24.77 20.2726H3.23C2.87134 20.2726 2.57667 20.3891 2.346 20.622C2.11534 20.8549 2 21.1524 2 21.5145V36.7387C2 37.1008 2.11534 37.3984 2.346 37.6313C2.57667 37.8642 2.872 37.9806 3.232 37.9806Z" fill="#0F7378"/>
</svg>
