<svg width="48" height="40" viewBox="0 0 48 40" fill="none" xmlns="http://www.w3.org/2000/svg">
    <path d="M31.9014 6.83594L31.915 6.8457L31.9287 6.85449C33.7361 8.00464 34.75 9.98813 34.75 12.2002C34.75 12.3652 34.7226 12.574 34.6787 12.8027C34.4724 12.7741 34.2404 12.75 34 12.75H14C13.7528 12.75 13.5143 12.7749 13.3037 12.8047C13.2691 12.6129 13.25 12.417 13.25 12.2002C13.25 10.0697 14.3976 8.01983 16.1426 6.60742L23.9873 1.49902L31.9014 6.83594ZM43.25 14.6279L42.5586 14.2822C41.8259 13.9158 41.25 12.9774 41.25 12C41.25 11.7795 41.3685 11.3611 41.7139 10.748C42.0401 10.1689 42.4922 9.54963 42.9688 8.96582C43.3281 8.52557 43.6894 8.12058 44 7.78711C44.3106 8.12058 44.6719 8.52557 45.0312 8.96582C45.5078 9.54963 45.9599 10.1689 46.2861 10.748C46.6315 11.3611 46.75 11.7795 46.75 12C46.75 12.9774 46.1741 13.9158 45.4414 14.2822L44.75 14.6279V38.75H29.25V32C29.25 29.1096 26.8904 26.75 24 26.75C21.1096 26.75 18.75 29.1096 18.75 32V38.75H3.25V14.6279L2.55859 14.2822C1.82595 13.9158 1.25 12.9774 1.25 12C1.25 11.7795 1.36852 11.3611 1.71387 10.748C2.04013 10.1689 2.49217 9.54963 2.96875 8.96582C3.32814 8.52557 3.68938 8.12058 4 7.78711C4.31062 8.12058 4.67186 8.52557 5.03125 8.96582C5.50783 9.54963 5.95987 10.1689 6.28613 10.748C6.63148 11.3611 6.75 11.7795 6.75 12C6.75 12.9774 6.17405 13.9158 5.44141 14.2822L4.75 14.6279V25.25H11.25V20C11.25 18.4904 12.4904 17.25 14 17.25H34C35.5096 17.25 36.75 18.4904 36.75 20V25.25H43.25V14.6279Z" stroke="#0F7378" stroke-width="2.5"/>
</svg>
