<svg width="45" height="40" viewBox="0 0 45 40" fill="none" xmlns="http://www.w3.org/2000/svg">
    <path d="M44.1667 18.3333H23.3333V11.6667H25.8333C26.4964 11.6667 27.1323 11.4033 27.6011 10.9344C28.0699 10.4656 28.3333 9.82971 28.3333 9.16667V2.5C28.3333 1.83696 28.0699 1.20107 27.6011 0.732233C27.1323 0.263392 26.4964 0 25.8333 0H19.1667C18.5036 0 17.8677 0.263392 17.3989 0.732233C16.9301 1.20107 16.6667 1.83696 16.6667 2.5V9.16667C16.6667 9.82971 16.9301 10.4656 17.3989 10.9344C17.8677 11.4033 18.5036 11.6667 19.1667 11.6667H21.6667V18.3333H0.833333C0.61232 18.3333 0.400358 18.4211 0.244078 18.5774C0.0877975 18.7337 0 18.9457 0 19.1667C0 19.3877 0.0877975 19.5996 0.244078 19.7559C0.400358 19.9122 0.61232 20 0.833333 20H8.33333V28.3333H5.83333C5.17029 28.3333 4.53441 28.5967 4.06557 29.0656C3.59672 29.5344 3.33333 30.1703 3.33333 30.8333V37.5C3.33333 38.163 3.59672 38.7989 4.06557 39.2678C4.53441 39.7366 5.17029 40 5.83333 40H12.5C13.163 40 13.7989 39.7366 14.2678 39.2678C14.7366 38.7989 15 38.163 15 37.5V30.8333C15 30.1703 14.7366 29.5344 14.2678 29.0656C13.7989 28.5967 13.163 28.3333 12.5 28.3333H10V20H35V28.3333H32.5C31.837 28.3333 31.2011 28.5967 30.7322 29.0656C30.2634 29.5344 30 30.1703 30 30.8333V37.5C30 38.163 30.2634 38.7989 30.7322 39.2678C31.2011 39.7366 31.837 40 32.5 40H39.1667C39.8297 40 40.4656 39.7366 40.9344 39.2678C41.4033 38.7989 41.6667 38.163 41.6667 37.5V30.8333C41.6667 30.1703 41.4033 29.5344 40.9344 29.0656C40.4656 28.5967 39.8297 28.3333 39.1667 28.3333H36.6667V20H44.1667C44.3877 20 44.5996 19.9122 44.7559 19.7559C44.9122 19.5996 45 19.3877 45 19.1667C45 18.9457 44.9122 18.7337 44.7559 18.5774C44.5996 18.4211 44.3877 18.3333 44.1667 18.3333ZM18.3333 9.16667V2.5C18.3333 2.27899 18.4211 2.06702 18.5774 1.91074C18.7337 1.75446 18.9457 1.66667 19.1667 1.66667H25.8333C26.0543 1.66667 26.2663 1.75446 26.4226 1.91074C26.5789 2.06702 26.6667 2.27899 26.6667 2.5V9.16667C26.6667 9.38768 26.5789 9.59964 26.4226 9.75592C26.2663 9.9122 26.0543 10 25.8333 10H19.1667C18.9457 10 18.7337 9.9122 18.5774 9.75592C18.4211 9.59964 18.3333 9.38768 18.3333 9.16667ZM13.3333 30.8333V37.5C13.3333 37.721 13.2455 37.933 13.0893 38.0893C12.933 38.2455 12.721 38.3333 12.5 38.3333H5.83333C5.61232 38.3333 5.40036 38.2455 5.24408 38.0893C5.0878 37.933 5 37.721 5 37.5V30.8333C5 30.6123 5.0878 30.4004 5.24408 30.2441C5.40036 30.0878 5.61232 30 5.83333 30H12.5C12.721 30 12.933 30.0878 13.0893 30.2441C13.2455 30.4004 13.3333 30.6123 13.3333 30.8333ZM40 30.8333V37.5C40 37.721 39.9122 37.933 39.7559 38.0893C39.5996 38.2455 39.3877 38.3333 39.1667 38.3333H32.5C32.279 38.3333 32.067 38.2455 31.9107 38.0893C31.7545 37.933 31.6667 37.721 31.6667 37.5V30.8333C31.6667 30.6123 31.7545 30.4004 31.9107 30.2441C32.067 30.0878 32.279 30 32.5 30H39.1667C39.3877 30 39.5996 30.0878 39.7559 30.2441C39.9122 30.4004 40 30.6123 40 30.8333Z" fill="#0F7378"/>
</svg>
