<svg width="24" height="21" viewBox="0 0 24 21" fill="none" xmlns="http://www.w3.org/2000/svg">
<path d="M6.5275 18.668C8.4725 18.668 9.7735 19.395 10.3475 19.805C10.5585 19.922 11.1565 20.2735 11.285 20.285V2.567C10.5235 1.149 8.285 0.00100017 5.965 0.00100017C3.035 0.00100017 0.551 1.6885 0 2.825V19.372C0 20.1455 0.457 20.4385 1.008 20.4385C1.453 20.4385 1.746 20.286 2.0275 20.0515C2.719 19.4305 4.3475 18.668 6.5275 18.668ZM17.4495 18.6685C19.629 18.6685 21.2465 19.4305 21.9495 20.0515C22.2185 20.274 22.512 20.438 22.957 20.438C23.508 20.438 23.965 20.1455 23.965 19.372V2.824C23.414 1.687 20.9415 0 18.0115 0C15.6915 0 13.453 1.148 12.6915 2.566V20.309C12.8205 20.297 13.418 19.934 13.6405 19.805C14.203 19.395 15.504 18.6685 17.4495 18.6685Z" fill="#0F7378"/>
</svg>
