<svg width="20" height="20" viewBox="0 0 20 20" fill="none" xmlns="http://www.w3.org/2000/svg">
<path d="M10 0.25C15.3883 0.25 19.75 4.16305 19.75 9C19.75 10.525 19.1438 11.9871 18.0654 13.0654C16.9871 14.1438 15.525 14.75 14 14.75H12.2002C11.9934 14.75 11.8018 14.8203 11.6611 14.9609C11.5204 15.1016 11.4502 15.2932 11.4502 15.5C11.4502 15.566 11.4662 15.6226 11.4814 15.6631C11.4962 15.7024 11.5151 15.7391 11.5264 15.7617C11.5388 15.7866 11.5458 15.7995 11.5498 15.8096V15.8877L11.6045 15.9561C11.9685 16.411 12.1504 16.9558 12.1504 17.5V17.5176C12.2393 18.7624 11.2656 19.75 10 19.75C8.71961 19.75 7.45148 19.4978 6.26855 19.0078C5.08573 18.5178 4.01078 17.7998 3.10547 16.8945C1.27699 15.0661 0.25 12.5859 0.25 10C0.25 7.41414 1.27699 4.93395 3.10547 3.10547C4.93395 1.27699 7.41414 0.25 10 0.25ZM10 1.75C7.81196 1.75 5.71319 2.61884 4.16602 4.16602C2.61884 5.71319 1.75 7.81196 1.75 10C1.75 12.188 2.61884 14.2868 4.16602 15.834C5.71319 17.3812 7.81196 18.25 10 18.25C10.2068 18.25 10.3984 18.1798 10.5391 18.0391C10.6798 17.8984 10.75 17.7068 10.75 17.5C10.75 17.3547 10.7121 17.246 10.6816 17.1699C10.6641 17.126 10.6586 17.1143 10.6514 17.0938L10.6504 17.0908V17.0127L10.5957 16.9434C10.2251 16.4801 10.0498 16.0342 10.0498 15.5C10.0498 14.2381 11.038 13.2501 12.2998 13.25H14C15.1272 13.25 16.2079 12.8019 17.0049 12.0049C17.8019 11.2079 18.25 10.1272 18.25 9C18.25 4.93054 14.5044 1.75 10 1.75ZM4.5 8.25C5.16193 8.25 5.75 8.83807 5.75 9.5C5.75 10.1619 5.16193 10.75 4.5 10.75C3.83807 10.75 3.25 10.1619 3.25 9.5C3.25 8.83807 3.83807 8.25 4.5 8.25ZM15.5 8.25C16.1619 8.25 16.75 8.83807 16.75 9.5C16.75 10.1619 16.1619 10.75 15.5 10.75C14.8381 10.75 14.25 10.1619 14.25 9.5C14.25 8.83807 14.8381 8.25 15.5 8.25ZM7.5 4.25C8.16193 4.25 8.75 4.83807 8.75 5.5C8.75 6.16193 8.16193 6.75 7.5 6.75C6.83807 6.75 6.25 6.16193 6.25 5.5C6.25 4.83807 6.83807 4.25 7.5 4.25ZM12.5 4.25C13.1619 4.25 13.75 4.83807 13.75 5.5C13.75 6.16193 13.1619 6.75 12.5 6.75C11.8381 6.75 11.25 6.16193 11.25 5.5C11.25 4.83807 11.8381 4.25 12.5 4.25Z" fill="#0F7378" stroke="#0F7378" stroke-width="0.5"/>
</svg>
