<svg width="36" height="36" viewBox="0 0 36 36" fill="none" xmlns="http://www.w3.org/2000/svg">
    <path d="M17.6033 22.0697C19.0167 20.8817 20.0305 19.2877 20.5072 17.504C20.9839 15.7203 20.9005 13.8331 20.2683 12.0984C19.6361 10.3637 18.4857 8.8654 16.973 7.80671C15.4604 6.74802 13.6587 6.18018 11.8124 6.18018C9.96606 6.18018 8.16441 6.74802 6.65176 7.80671C5.13911 8.8654 3.98867 10.3637 3.35646 12.0984C2.72424 13.8331 2.64084 15.7203 3.11757 17.504C3.5943 19.2877 4.60809 20.8817 6.02145 22.0697C3.81445 23.0676 1.90186 24.6174 0.468165 26.5697C0.203363 26.9305 0.0927494 27.3818 0.160658 27.8242C0.228567 28.2665 0.469435 28.6638 0.830274 28.9286C1.19111 29.1934 1.64237 29.3041 2.08476 29.2362C2.52716 29.1682 2.92446 28.9274 3.18926 28.5665C4.18171 27.2111 5.47971 26.1087 6.97794 25.3488C8.47618 24.5889 10.1325 24.1929 11.8124 24.1929C13.4923 24.1929 15.1486 24.5889 16.6468 25.3488C18.1451 26.1087 19.4431 27.2111 20.4355 28.5665C20.7003 28.9276 21.0977 29.1686 21.5402 29.2367C21.9827 29.3047 22.4342 29.1942 22.7952 28.9294C23.1562 28.6645 23.3973 28.2672 23.4653 27.8246C23.5333 27.3821 23.4228 26.9307 23.158 26.5697C21.7235 24.6177 19.8105 23.0679 17.6033 22.0697ZM6.18738 15.1875C6.18738 14.075 6.51728 12.9874 7.13537 12.0624C7.75345 11.1374 8.63196 10.4164 9.65979 9.99065C10.6876 9.56491 11.8186 9.45352 12.9098 9.67056C14.0009 9.8876 15.0032 10.4233 15.7899 11.21C16.5765 11.9967 17.1123 12.999 17.3293 14.0901C17.5463 15.1812 17.4349 16.3122 17.0092 17.3401C16.5835 18.3679 15.8625 19.2464 14.9375 19.8645C14.0124 20.4826 12.9249 20.8125 11.8124 20.8125C10.3205 20.8125 8.8898 20.2198 7.83491 19.165C6.78002 18.1101 6.18738 16.6793 6.18738 15.1875ZM35.1702 28.9223C34.9916 29.0536 34.7888 29.1484 34.5735 29.2013C34.3582 29.2541 34.1346 29.2641 33.9155 29.2305C33.6963 29.197 33.486 29.1206 33.2964 29.0057C33.1068 28.8908 32.9417 28.7396 32.8105 28.5609C31.8156 27.2081 30.5171 26.1076 29.0194 25.348C27.5217 24.5884 25.8667 24.1909 24.1874 24.1875C23.7398 24.1875 23.3106 24.0097 22.9941 23.6932C22.6777 23.3767 22.4999 22.9475 22.4999 22.5C22.4999 22.0524 22.6777 21.6232 22.9941 21.3067C23.3106 20.9903 23.7398 20.8125 24.1874 20.8125C25.0156 20.8115 25.8334 20.6277 26.5824 20.274C27.3313 19.9204 27.9929 19.4058 28.52 18.7669C29.047 18.128 29.4264 17.3806 29.6312 16.5781C29.8359 15.7756 29.8609 14.9377 29.7044 14.1244C29.5479 13.3111 29.2137 12.5424 28.7257 11.8732C28.2377 11.204 27.608 10.6508 26.8814 10.2532C26.1549 9.85555 25.3495 9.62325 24.5228 9.57289C23.6961 9.52253 22.8685 9.65534 22.0991 9.96185C21.893 10.0462 21.6722 10.089 21.4495 10.0877C21.2268 10.0863 21.0066 10.0409 20.8015 9.95404C20.5964 9.86717 20.4105 9.74057 20.2546 9.58153C20.0987 9.42249 19.9758 9.23416 19.8931 9.0274C19.8103 8.82064 19.7692 8.59954 19.7723 8.37684C19.7754 8.15415 19.8225 7.93427 19.911 7.72987C19.9995 7.52548 20.1275 7.34063 20.2878 7.18596C20.448 7.0313 20.6373 6.90989 20.8447 6.82873C22.8308 6.03355 25.0352 5.97186 27.0626 6.6547C29.09 7.33754 30.8079 8.72026 31.9083 10.5549C33.0086 12.3896 33.4194 14.5563 33.067 16.6664C32.7146 18.7765 31.6221 20.6921 29.9854 22.0697C32.1923 23.0676 34.1049 24.6174 35.5386 26.5697C35.8008 26.9308 35.9092 27.3811 35.8402 27.8221C35.7711 28.263 35.5302 28.6586 35.1702 28.9223Z" fill="#0F7378"/>
</svg>

