<svg width="30" height="23" viewBox="0 0 30 23" fill="none" xmlns="http://www.w3.org/2000/svg">
<path d="M13.125 23C13.125 23 11.25 23 11.25 21.0833C11.25 19.1667 13.125 13.4167 20.625 13.4167C28.125 13.4167 30 19.1667 30 21.0833C30 23 28.125 23 28.125 23H13.125ZM20.625 11.5C22.1168 11.5 23.5476 10.8942 24.6025 9.81586C25.6574 8.73753 26.25 7.27499 26.25 5.75C26.25 4.22501 25.6574 2.76247 24.6025 1.68414C23.5476 0.605802 22.1168 0 20.625 0C19.1332 0 17.7024 0.605802 16.6475 1.68414C15.5926 2.76247 15 4.22501 15 5.75C15 7.27499 15.5926 8.73753 16.6475 9.81586C17.7024 10.8942 19.1332 11.5 20.625 11.5ZM9.78 23C9.50217 22.4016 9.36356 21.7456 9.375 21.0833C9.375 18.4862 10.65 15.8125 13.005 13.9533C11.8297 13.5823 10.605 13.4013 9.375 13.4167C1.875 13.4167 0 19.1667 0 21.0833C0 23 1.875 23 1.875 23H9.78ZM8.4375 11.5C9.6807 11.5 10.873 10.9952 11.7521 10.0966C12.6311 9.19794 13.125 7.97916 13.125 6.70833C13.125 5.4375 12.6311 4.21873 11.7521 3.32011C10.873 2.4215 9.6807 1.91667 8.4375 1.91667C7.1943 1.91667 6.00201 2.4215 5.12294 3.32011C4.24386 4.21873 3.75 5.4375 3.75 6.70833C3.75 7.97916 4.24386 9.19794 5.12294 10.0966C6.00201 10.9952 7.1943 11.5 8.4375 11.5Z" fill="#0F7378"/>
</svg>
