<svg width="30" height="30" viewBox="0 0 30 30" fill="none" xmlns="http://www.w3.org/2000/svg">
<path fill-rule="evenodd" clip-rule="evenodd" d="M15 1.6091e-10C16.9698 -9.0149e-06 18.9203 0.378787 20.7402 1.11476C22.5601 1.85074 24.2137 2.92948 25.6066 4.28939C26.9995 5.6493 28.1044 7.26375 28.8582 9.04056C29.612 10.8174 30 12.7218 30 14.645C30 22.7332 23.2842 29.29 15 29.29C6.71575 29.29 0 22.7332 0 14.645C0 6.55681 6.71575 1.6091e-10 15 1.6091e-10ZM16.5 16.1095H13.5C9.78644 16.1095 6.59826 18.3054 5.22316 21.4399C7.39891 24.4186 10.9671 26.361 15 26.361C19.0328 26.361 22.601 24.4186 24.7768 21.4397C23.4017 18.3054 20.2136 16.1095 16.5 16.1095ZM15 4.3935C12.5147 4.3935 10.5 6.36055 10.5 8.78699C10.5 11.2134 12.5147 13.1805 15 13.1805C17.4852 13.1805 19.5 11.2134 19.5 8.78699C19.5 6.36055 17.4853 4.3935 15 4.3935Z" fill="#0F7378"/>
</svg>
