<svg width="30" height="30" viewBox="0 0 30 30" fill="none" xmlns="http://www.w3.org/2000/svg">
    <path fill-rule="evenodd" clip-rule="evenodd" d="M20.4545 10.6505C20.4545 12.0628 19.8798 13.4173 18.8569 14.416C17.834 15.4147 16.4466 15.9757 15 15.9757C13.5533 15.9757 12.1659 15.4147 11.143 14.416C10.1201 13.4173 9.54541 12.0628 9.54541 10.6505C9.54541 9.23811 10.1201 7.88361 11.143 6.88493C12.1659 5.88625 13.5533 5.3252 15 5.3252C16.4466 5.3252 17.834 5.88625 18.8569 6.88493C19.8798 7.88361 20.4545 9.23811 20.4545 10.6505ZM17.7272 10.6505C17.7272 11.3566 17.4399 12.0339 16.9284 12.5332C16.417 13.0326 15.7233 13.3131 15 13.3131C14.2766 13.3131 13.5829 13.0326 13.0715 12.5332C12.56 12.0339 12.2727 11.3566 12.2727 10.6505C12.2727 9.94428 12.56 9.26703 13.0715 8.76769C13.5829 8.26835 14.2766 7.98782 15 7.98782C15.7233 7.98782 16.417 8.26835 16.9284 8.76769C17.4399 9.26703 17.7272 9.94428 17.7272 10.6505Z" fill="#0F7378"/>
    <path fill-rule="evenodd" clip-rule="evenodd" d="M15 0C6.71591 0 0 6.55672 0 14.6445C0 22.7322 6.71591 29.2889 15 29.2889C23.2841 29.2889 30 22.7322 30 14.6445C30 6.55672 23.2841 0 15 0ZM2.72727 14.6445C2.72727 17.4269 3.69955 19.9883 5.32909 22.0226C6.47378 20.5557 7.95021 19.3668 9.64314 18.5488C11.3361 17.7309 13.1997 17.3059 15.0886 17.3071C16.9532 17.305 18.7937 17.7186 20.4697 18.5164C22.1457 19.3142 23.613 20.4752 24.7595 21.9108C25.9411 20.3979 26.7366 18.632 27.0803 16.7594C27.424 14.8867 27.306 12.9611 26.7361 11.1417C26.1662 9.32244 25.1608 7.66178 23.8029 6.29716C22.4451 4.93255 20.774 3.90323 18.9278 3.29435C17.0816 2.68547 15.1135 2.51455 13.1862 2.79572C11.2589 3.0769 9.4279 3.80209 7.84469 4.91129C6.26147 6.02049 4.97156 7.48181 4.08168 9.17435C3.19179 10.8669 2.72752 12.742 2.72727 14.6445ZM15 26.6263C12.1826 26.6307 9.4502 25.6845 7.26545 23.9477C8.14474 22.7184 9.31526 21.7147 10.6774 21.0221C12.0395 20.3294 13.5529 19.9684 15.0886 19.9697C16.6052 19.9684 18.1003 20.3204 19.4495 20.9966C20.7988 21.6727 21.9633 22.6534 22.8464 23.8571C20.6447 25.6504 17.8672 26.6307 15 26.6263Z" fill="#0F7378"/>
</svg>
