<svg width="20" height="20" viewBox="0 0 20 20" fill="none" xmlns="http://www.w3.org/2000/svg">
<path d="M6.134 12.98V11.98H7.829C7.78433 12.1467 7.74933 12.3103 7.724 12.471C7.69933 12.631 7.68433 12.801 7.679 12.981L6.134 12.98ZM6.001 18C4.79767 18 3.77233 17.5863 2.925 16.759C2.07767 15.9317 1.654 14.922 1.654 13.73V4.654C1.194 4.654 0.803333 4.49667 0.482 4.182C0.160667 3.86667 0 3.479 0 3.019V1.654C0 1.194 0.160667 0.803333 0.482 0.482C0.803333 0.160667 1.194 0 1.654 0H10.327C10.787 0 11.181 0.160667 11.509 0.482C11.8363 0.802667 12 1.19333 12 1.654V3.019C12 3.479 11.8363 3.86667 11.509 4.182C11.181 4.49667 10.787 4.654 10.327 4.654V8.391C10.1703 8.49967 10.0247 8.615 9.89 8.737C9.75533 8.859 9.62733 8.99167 9.506 9.135H6.135V8.135H9.327V4.654H2.654V13.731C2.654 14.6537 2.98067 15.4293 3.634 16.058C4.28733 16.6867 5.07633 17.0007 6.001 17C6.437 17 6.84333 16.9237 7.22 16.771C7.596 16.6183 7.932 16.4083 8.228 16.141C8.29733 16.3077 8.37367 16.4607 8.457 16.6C8.54033 16.7393 8.63467 16.8803 8.74 17.023C8.36667 17.3283 7.94933 17.5673 7.488 17.74C7.02667 17.9133 6.531 18 6.001 18ZM1.654 3.654H10.327C10.507 3.654 10.664 3.593 10.798 3.471C10.9327 3.349 11 3.19833 11 3.019V1.654C11 1.474 10.9327 1.32 10.798 1.192C10.6633 1.064 10.5063 1 10.327 1H1.654C1.474 1 1.32033 1.064 1.193 1.192C1.06567 1.32 1.00133 1.474 1 1.654V3.019C1 3.199 1.064 3.34967 1.192 3.471C1.32067 3.593 1.47467 3.654 1.654 3.654ZM15.814 15.487C16.3607 14.9397 16.634 14.2773 16.634 13.5C16.634 12.7227 16.3607 12.0607 15.814 11.514C15.2667 10.966 14.6043 10.692 13.827 10.692C13.0503 10.692 12.3883 10.966 11.841 11.514C11.2937 12.0607 11.02 12.7227 11.02 13.5C11.02 14.2773 11.2933 14.9397 11.84 15.487C12.3867 16.0343 13.049 16.3077 13.827 16.307C14.6043 16.307 15.2667 16.0337 15.814 15.487ZM18.927 19.289L16.15 16.512C15.8093 16.7707 15.442 16.968 15.048 17.104C14.6547 17.24 14.2477 17.308 13.827 17.308C12.7697 17.308 11.8707 16.9377 11.13 16.197C10.3893 15.4563 10.0193 14.5573 10.02 13.5C10.0207 12.4427 10.3907 11.5437 11.13 10.803C11.8693 10.0623 12.7683 9.69233 13.827 9.693C14.8857 9.69367 15.7847 10.0637 16.524 10.803C17.2633 11.5423 17.6333 12.4413 17.634 13.5C17.634 13.92 17.5663 14.327 17.431 14.721C17.295 15.1143 17.0977 15.4817 16.839 15.823L19.616 18.6L18.927 19.289Z" fill="#0F7378"/>
</svg>
