<svg width="30" height="30" viewBox="0 0 30 30" fill="none" xmlns="http://www.w3.org/2000/svg">
    <path d="M5.66753 22.8127L14.2352 14.2445L15.7501 15.7595L7.18243 24.3277L5.66753 22.8127Z" fill="#0F7378"/>
    <path d="M16.0723 30C15.9366 30.0003 15.8021 29.9749 15.6759 29.925C15.5004 29.855 15.3465 29.7399 15.2298 29.5912C15.1131 29.4426 15.0379 29.2657 15.0116 29.0786L13.9403 21.5786L16.083 21.2786L16.8865 26.925L20.3577 24.1286V16.0715C20.3569 15.9305 20.3839 15.7907 20.4372 15.6601C20.4905 15.5296 20.5691 15.4109 20.6684 15.3107L25.0288 10.95C25.9273 10.0576 26.6399 8.99583 27.1254 7.82617C27.6109 6.65652 27.8596 5.40219 27.8572 4.13577V2.14292H25.8645C24.5982 2.14051 23.3439 2.38926 22.1743 2.87478C21.0047 3.3603 19.943 4.07294 19.0507 4.97148L14.6902 9.33219C14.5901 9.43149 14.4714 9.51005 14.3409 9.56337C14.2103 9.61669 14.0706 9.64372 13.9296 9.6429H5.87294L3.0767 13.1357L8.72276 13.9393L8.42278 16.0822L0.923269 15.0107C0.736148 14.9845 0.559297 14.9092 0.410654 14.7926C0.262012 14.6759 0.146866 14.522 0.0768956 14.3465C0.00605849 14.1697 -0.0163926 13.9773 0.0118535 13.7889C0.0400996 13.6006 0.118022 13.4232 0.237599 13.275L4.52303 7.91791C4.62173 7.78967 4.74819 7.68545 4.89292 7.61308C5.03765 7.54071 5.19689 7.50207 5.35869 7.50005H13.4903L17.5293 3.45006C18.6212 2.35196 19.9202 1.48156 21.351 0.889339C22.7818 0.297116 24.316 -0.00515047 25.8645 6.6394e-05H27.8572C28.4255 6.6394e-05 28.9705 0.22583 29.3723 0.627693C29.7742 1.02956 29.9999 1.5746 29.9999 2.14292V4.13577C30.0051 5.68438 29.7029 7.21861 29.1107 8.64951C28.5185 10.0804 27.6482 11.3795 26.5502 12.4715L22.5004 16.5107V24.6429C22.4997 24.8038 22.4627 24.9625 22.3922 25.1072C22.3217 25.2519 22.2196 25.3788 22.0933 25.4786L16.7365 29.7643C16.548 29.9155 16.3139 29.9986 16.0723 30Z" fill="#0F7378"/>
</svg>
