<svg width="44" height="43" viewBox="0 0 44 43" fill="none" xmlns="http://www.w3.org/2000/svg">
    <path d="M9.45 28.0307V29.2807C10.1404 29.2807 10.7 28.7211 10.7 28.0307H9.45ZM9.45 20.9121L8.76041 19.8695C8.41048 20.1009 8.2 20.4925 8.2 20.9121H9.45ZM34.05 20.9121H35.3C35.3 20.4925 35.0895 20.1009 34.7396 19.8695L34.05 20.9121ZM34.05 28.0307H32.8C32.8 28.7211 33.3596 29.2807 34.05 29.2807V28.0307ZM1.25 41.251H0C0 41.9414 0.559644 42.501 1.25 42.501L1.25 41.251ZM21.75 2.60697L20.6337 2.04442L20.5 2.3098V2.60697H21.75ZM34.05 8.70866L35.1663 9.27121C35.2542 9.09673 35.3 8.90406 35.3 8.70866H34.05ZM34.05 2.60697H35.3C35.3 2.02799 34.9024 1.52478 34.3391 1.39086C33.7758 1.25695 33.1943 1.52738 32.9337 2.04442L34.05 2.60697ZM21.75 8.70866H20.5C20.5 9.28765 20.8976 9.79086 21.4609 9.92477C22.0242 10.0587 22.6057 9.78825 22.8663 9.27121L21.75 8.70866ZM24.6 41.251C24.6 41.9414 25.1596 42.501 25.85 42.501C26.5404 42.501 27.1 41.9414 27.1 41.251H25.85H24.6ZM25.85 28.0307H27.1C27.1 27.3403 26.5404 26.7807 25.85 26.7807V28.0307ZM17.65 28.0307V26.7807C16.9596 26.7807 16.4 27.3403 16.4 28.0307H17.65ZM16.4 41.251C16.4 41.9414 16.9596 42.501 17.65 42.501C18.3404 42.501 18.9 41.9414 18.9 41.251H17.65H16.4ZM15.6 40.001C14.9096 40.001 14.35 40.5607 14.35 41.251C14.35 41.9414 14.9096 42.501 15.6 42.501V41.251V40.001ZM27.9 42.501C28.5904 42.501 29.15 41.9414 29.15 41.251C29.15 40.5607 28.5904 40.001 27.9 40.001V41.251V42.501ZM1.25 30.0646H2.5C2.5 29.8599 2.58187 29.6616 2.73082 29.5138L1.85043 28.6264L0.970039 27.7391C0.350092 28.3541 0 29.1905 0 30.0646H1.25ZM1.85043 28.6264L2.73082 29.5138C2.88011 29.3657 3.08466 29.2807 3.3 29.2807V28.0307V26.7807C2.42795 26.7807 1.58965 27.1243 0.970039 27.7391L1.85043 28.6264ZM3.3 28.0307V29.2807H9.45V28.0307V26.7807H3.3V28.0307ZM9.45 28.0307H10.7V20.9121H9.45H8.2V28.0307H9.45ZM9.45 20.9121L10.1396 21.9546L22.4396 13.819L21.75 12.7765L21.0604 11.7339L8.76041 19.8695L9.45 20.9121ZM21.75 12.7765L21.0604 13.819L33.3604 21.9546L34.05 20.9121L34.7396 19.8695L22.4396 11.7339L21.75 12.7765ZM34.05 20.9121H32.8V28.0307H34.05H35.3V20.9121H34.05ZM34.05 28.0307V29.2807H40.2V28.0307V26.7807H34.05V28.0307ZM40.2 28.0307V29.2807C40.4153 29.2807 40.6199 29.3657 40.7692 29.5138L41.6496 28.6264L42.53 27.7391C41.9103 27.1243 41.072 26.7807 40.2 26.7807V28.0307ZM41.6496 28.6264L40.7692 29.5138C40.9181 29.6616 41 29.8599 41 30.0646H42.25H43.5C43.5 29.1905 43.1499 28.3541 42.53 27.7391L41.6496 28.6264ZM42.25 30.0646H41V39.2171H42.25H43.5V30.0646H42.25ZM42.25 39.2171H41C41 39.4218 40.9181 39.6202 40.7692 39.768L41.6496 40.6553L42.53 41.5427C43.1499 40.9276 43.5 40.0913 43.5 39.2171H42.25ZM41.6496 40.6553L40.7692 39.768C40.6199 39.9161 40.4153 40.001 40.2 40.001V41.251V42.501C41.072 42.501 41.9103 42.1574 42.53 41.5427L41.6496 40.6553ZM40.2 41.251V40.001H1.25V41.251V42.501H40.2V41.251ZM1.25 41.251H2.5V30.0646H1.25H0V41.251H1.25ZM21.75 2.60697H20.5V12.7765H21.75H23V2.60697H21.75ZM34.05 8.70866H35.3V2.60697H34.05H32.8V8.70866H34.05ZM34.05 2.60697C32.9337 2.04442 32.9342 2.04355 32.9346 2.0427C32.9347 2.04243 32.9352 2.04158 32.9354 2.04104C32.936 2.03996 32.9365 2.03892 32.937 2.03792C32.9381 2.03592 32.939 2.03408 32.9399 2.0324C32.9416 2.02906 32.9431 2.02635 32.9442 2.02425C32.9464 2.02006 32.9475 2.01827 32.9473 2.01865C32.9468 2.01945 32.9415 2.02861 32.9312 2.04426C32.9103 2.07604 32.8709 2.1311 32.8119 2.19615C32.6932 2.32694 32.5085 2.48406 32.2436 2.58919C31.7844 2.7714 30.6811 2.9478 28.5896 1.56439L27.9 2.60697L27.2104 3.64955C29.7314 5.31698 31.7031 5.49338 33.1658 4.91289C33.8618 4.63666 34.3497 4.22175 34.6635 3.87584C34.8207 3.70255 34.9375 3.54309 35.0187 3.41994C35.0594 3.35813 35.0916 3.30472 35.116 3.26233C35.1281 3.24111 35.1384 3.22256 35.1467 3.20701C35.1509 3.19923 35.1546 3.19219 35.1578 3.18593C35.1595 3.1828 35.161 3.17987 35.1624 3.17713C35.1631 3.17576 35.1638 3.17444 35.1644 3.17317C35.1647 3.17254 35.1652 3.17163 35.1654 3.17131C35.1658 3.17041 35.1663 3.16952 34.05 2.60697ZM27.9 2.60697L28.5896 1.56439C26.0686 -0.103044 24.0969 -0.279443 22.6342 0.301052C21.9382 0.577279 21.4503 0.992191 21.1365 1.3381C20.9793 1.51139 20.8625 1.67085 20.7813 1.794C20.7406 1.85581 20.7084 1.90922 20.684 1.95161C20.6719 1.97283 20.6616 1.99138 20.6533 2.00693C20.6491 2.01471 20.6454 2.02175 20.6421 2.02801C20.6405 2.03113 20.639 2.03407 20.6376 2.03681C20.6369 2.03818 20.6362 2.0395 20.6356 2.04076C20.6353 2.0414 20.6348 2.04231 20.6346 2.04263C20.6342 2.04353 20.6337 2.04442 21.75 2.60697C22.8663 3.16952 22.8658 3.17039 22.8654 3.17124C22.8653 3.17151 22.8648 3.17236 22.8646 3.1729C22.864 3.17398 22.8635 3.17502 22.863 3.17602C22.8619 3.17802 22.861 3.17986 22.8601 3.18154C22.8584 3.18488 22.8569 3.18759 22.8558 3.18969C22.8536 3.19388 22.8525 3.19567 22.8527 3.19529C22.8532 3.19449 22.8585 3.18533 22.8688 3.16968C22.8897 3.1379 22.9291 3.08284 22.9881 3.01779C23.1068 2.887 23.2915 2.72988 23.5564 2.62475C24.0156 2.44254 25.1189 2.26614 27.2104 3.64955L27.9 2.60697ZM21.75 2.60697H20.5V8.70866H21.75H23V2.60697H21.75ZM21.75 8.70866C22.8663 9.27121 22.8658 9.27208 22.8654 9.27293C22.8653 9.2732 22.8648 9.27405 22.8646 9.27459C22.864 9.27568 22.8635 9.27672 22.863 9.27772C22.8619 9.27972 22.861 9.28156 22.8601 9.28323C22.8584 9.28658 22.8569 9.28929 22.8558 9.29139C22.8536 9.29558 22.8525 9.29737 22.8527 9.29699C22.8532 9.29618 22.8585 9.28703 22.8688 9.27137C22.8897 9.2396 22.9291 9.18454 22.9881 9.11948C23.1068 8.9887 23.2915 8.83158 23.5564 8.72645C24.0156 8.54423 25.1189 8.36783 27.2104 9.75124L27.9 8.70866L28.5896 7.66609C26.0686 5.99865 24.0969 5.82225 22.6342 6.40275C21.9382 6.67897 21.4503 7.09389 21.1365 7.4398C20.9793 7.61309 20.8625 7.77254 20.7813 7.89569C20.7406 7.9575 20.7084 8.01091 20.684 8.05331C20.6719 8.07453 20.6616 8.09308 20.6533 8.10863C20.6491 8.1164 20.6454 8.12344 20.6421 8.1297C20.6405 8.13283 20.639 8.13577 20.6376 8.1385C20.6369 8.13987 20.6362 8.14119 20.6356 8.14246C20.6353 8.14309 20.6348 8.14401 20.6346 8.14433C20.6342 8.14523 20.6337 8.14612 21.75 8.70866ZM27.9 8.70866L27.2104 9.75124C29.7314 11.4187 31.7031 11.5951 33.1658 11.0146C33.8618 10.7384 34.3497 10.3234 34.6635 9.97753C34.8207 9.80424 34.9375 9.64479 35.0187 9.52164C35.0594 9.45983 35.0916 9.40642 35.116 9.36402C35.1281 9.3428 35.1384 9.32425 35.1467 9.3087C35.1509 9.30093 35.1546 9.29389 35.1578 9.28763C35.1595 9.2845 35.161 9.28156 35.1624 9.27883C35.1631 9.27746 35.1638 9.27614 35.1644 9.27487C35.1647 9.27424 35.1652 9.27332 35.1654 9.273C35.1658 9.2721 35.1663 9.27121 34.05 8.70866C32.9337 8.14612 32.9342 8.14525 32.9346 8.1444C32.9347 8.14413 32.9352 8.14328 32.9354 8.14274C32.936 8.14165 32.9365 8.14061 32.937 8.13961C32.9381 8.13761 32.939 8.13577 32.9399 8.1341C32.9416 8.13075 32.9431 8.12804 32.9442 8.12594C32.9464 8.12175 32.9475 8.11996 32.9473 8.12034C32.9468 8.12115 32.9415 8.1303 32.9312 8.14596C32.9103 8.17773 32.8709 8.23279 32.8119 8.29785C32.6932 8.42863 32.5085 8.58575 32.2436 8.69088C31.7844 8.8731 30.6811 9.0495 28.5896 7.66609L27.9 8.70866ZM25.85 41.251H27.1V28.0307H25.85H24.6V41.251H25.85ZM25.85 28.0307V26.7807H17.65V28.0307V29.2807H25.85V28.0307ZM17.65 28.0307H16.4V41.251H17.65H18.9V28.0307H17.65ZM15.6 41.251V42.501H27.9V41.251V40.001H15.6V41.251Z" fill="#0F7378"/>
</svg>
