<svg width="46" height="40" viewBox="0 0 46 40" fill="none" xmlns="http://www.w3.org/2000/svg">
    <path d="M23 2.89874C19.0201 2.89845 15.1295 4.08828 11.8201 6.31781C8.51063 8.54735 5.93093 11.7165 4.40712 15.4245C2.88331 19.1325 2.48381 23.213 3.25914 27.15C4.03447 31.087 5.94981 34.7038 8.76301 37.543C9.02486 37.8165 9.16975 38.1827 9.16647 38.5628C9.1632 38.9429 9.01202 39.3066 8.74549 39.5754C8.47897 39.8442 8.11843 39.9966 7.74152 39.9999C7.36461 40.0033 7.0015 39.8571 6.73038 39.593C3.51552 36.3482 1.32672 32.2149 0.440673 27.7157C-0.445372 23.2164 0.0111225 18.5533 1.75245 14.3156C3.49378 10.078 6.44175 6.45624 10.2237 3.90813C14.0057 1.36002 18.4518 0 23 0C27.5482 0 31.9943 1.36002 35.7763 3.90813C39.5582 6.45624 42.5062 10.078 44.2475 14.3156C45.9889 18.5533 46.4454 23.2164 45.5593 27.7157C44.6733 32.2149 42.4845 36.3482 39.2696 39.593C38.9985 39.8571 38.6354 40.0033 38.2585 39.9999C37.8816 39.9966 37.521 39.8442 37.2545 39.5754C36.988 39.3066 36.8368 38.9429 36.8335 38.5628C36.8302 38.1827 36.9751 37.8165 37.237 37.543C40.0502 34.7038 41.9655 31.087 42.7409 27.15C43.5162 23.213 43.1167 19.1325 41.5929 15.4245C40.0691 11.7165 37.4894 8.54735 34.1799 6.31781C30.8705 4.08828 26.9799 2.89845 23 2.89874ZM23 11.5975C20.7267 11.5974 18.5043 12.2769 16.6137 13.55C14.7231 14.8232 13.249 16.633 12.3777 18.7507C11.5064 20.8684 11.277 23.199 11.7185 25.4481C12.1599 27.6973 13.2525 29.764 14.858 31.3872C14.9951 31.5211 15.1044 31.6813 15.1795 31.8582C15.2545 32.0352 15.2939 32.2255 15.2953 32.418C15.2967 32.6105 15.26 32.8014 15.1875 32.9794C15.115 33.1575 15.008 33.3192 14.8729 33.4551C14.7377 33.5911 14.5771 33.6985 14.4003 33.7711C14.2235 33.8438 14.0342 33.8802 13.8434 33.8783C13.6525 33.8763 13.4639 33.8361 13.2887 33.7598C13.1134 33.6836 12.9549 33.5729 12.8225 33.4343C10.8155 31.405 9.44995 28.8213 8.89836 26.0096C8.34677 23.1979 8.63391 20.2844 9.72349 17.6372C10.8131 14.99 12.6562 12.7279 15.02 11.1368C17.3838 9.5457 20.1622 8.69692 23.0041 8.69773C25.846 8.69854 28.6239 9.5489 30.9868 11.1414C33.3497 12.7338 35.1915 14.997 36.2796 17.6448C37.3677 20.2926 37.6532 23.2062 37.1 26.0176C36.5469 28.829 35.1799 31.412 33.1717 33.4401C32.901 33.7046 32.5381 33.8513 32.1612 33.8485C31.7842 33.8458 31.4235 33.6938 31.1565 33.4254C30.8896 33.1569 30.7379 32.7935 30.7341 32.4134C30.7304 32.0332 30.8748 31.6668 31.1362 31.393C32.7434 29.7704 33.8375 27.7038 34.2803 25.4542C34.7231 23.2046 34.4946 20.8731 33.6238 18.7545C32.753 16.6358 31.279 14.8251 29.388 13.5512C27.497 12.2773 25.274 11.5974 23 11.5975ZM23 17.3967C21.475 17.3967 20.0125 18.0077 18.9341 19.0952C17.8558 20.1828 17.25 21.6578 17.25 23.1959C17.25 24.7339 17.8558 26.2089 18.9341 27.2965C20.0125 28.384 21.475 28.995 23 28.995C24.525 28.995 25.9875 28.384 27.0659 27.2965C28.1442 26.2089 28.75 24.7339 28.75 23.1959C28.75 21.6578 28.1442 20.1828 27.0659 19.0952C25.9875 18.0077 24.525 17.3967 23 17.3967ZM20.125 23.1959C20.125 22.4268 20.4279 21.6893 20.9671 21.1455C21.5062 20.6018 22.2375 20.2963 23 20.2963C23.7625 20.2963 24.4938 20.6018 25.0329 21.1455C25.5721 21.6893 25.875 22.4268 25.875 23.1959C25.875 23.9649 25.5721 24.7024 25.0329 25.2462C24.4938 25.7899 23.7625 26.0954 23 26.0954C22.2375 26.0954 21.5062 25.7899 20.9671 25.2462C20.4279 24.7024 20.125 23.9649 20.125 23.1959Z" fill="#0F7378"/>
</svg>
