<svg width="42" height="42" viewBox="0 0 42 42" fill="none" xmlns="http://www.w3.org/2000/svg">
    <path d="M5.63972 26.8513V22.4282H35.8603V26.8513M34.6352 8.71267H37.3015M34.0833 14.7998L35.9674 16.6771M34.0833 2.62733L35.9674 0.75M6.86483 8.71267H4.19852M7.41667 14.7998L5.53078 16.6771M7.41667 2.62733L5.53078 0.75M20.75 16.8584V25.9678M0.75 36.1047C0.75 37.3367 1.24165 38.5182 2.11678 39.3894C2.99192 40.2606 4.17886 40.75 5.41649 40.75C6.65412 40.75 7.84106 40.2606 8.71619 39.3894C9.59133 38.5182 10.083 37.3367 10.083 36.1047C10.083 34.8726 9.59133 33.6911 8.71619 32.8199C7.84106 31.9488 6.65412 31.4593 5.41649 31.4593C4.17886 31.4593 2.99192 31.9488 2.11678 32.8199C1.24165 33.6911 0.75 34.8726 0.75 36.1047ZM16.305 31.7189H25.1933V40.5669H16.305V31.7189ZM40.75 40.5669H30.083L35.4156 30.8336L40.75 40.5669ZM27.4167 7.56778C27.4187 6.37079 27.0956 5.19554 26.4814 4.16648C25.8672 3.13743 24.9848 2.2929 23.9278 1.72234C22.8707 1.15178 21.6784 0.87643 20.4769 0.925462C19.2755 0.974494 18.1098 1.34608 17.1032 2.00086C16.0966 2.65564 15.2867 3.56924 14.7591 4.64489C14.2316 5.72053 14.0062 6.91818 14.1067 8.11098C14.2072 9.30378 14.6299 10.4473 15.33 11.4205C16.0301 12.3936 16.9816 13.1602 18.0837 13.6389V16.8584H23.4163V13.6407C24.6042 13.1254 25.6153 12.2765 26.3258 11.1978C27.0364 10.1192 27.4155 8.85765 27.4167 7.56778Z" stroke="#0F7378" stroke-width="1.5" stroke-linecap="round" stroke-linejoin="round"/>
</svg>
