<svg width="51" height="40" viewBox="0 0 51 40" fill="none" xmlns="http://www.w3.org/2000/svg">
    <path fill-rule="evenodd" clip-rule="evenodd" d="M24.0056 0.10959C24.9776 -0.03653 25.9662 -0.03653 26.9382 0.10959C28.0326 0.278046 29.0845 0.697081 30.8482 1.39828L46.1273 7.50481C47.3046 7.97649 48.2523 8.35552 48.9536 8.70506C49.6272 9.04619 50.3009 9.46943 50.6472 10.1369C50.8831 10.5897 51 11.0845 51 11.5793V28.425C51 28.7042 50.8881 28.972 50.6888 29.1694C50.4895 29.3669 50.2193 29.4778 49.9375 29.4778C49.6557 29.4778 49.3854 29.3669 49.1862 29.1694C48.9869 28.972 48.875 28.7042 48.875 28.425V14.4852C48.1864 14.8263 47.2621 15.1948 46.1337 15.6476L44.6291 16.2477V28.4186C44.6291 32.4616 41.9941 35.3675 38.424 37.2205C34.8539 39.0735 30.1364 40 25.5038 40C20.8712 40 16.1748 39.0798 12.6048 37.2205C9.01345 35.3675 6.3784 32.4405 6.3784 28.4186V16.2477L4.87175 15.6455C3.69447 15.1738 2.74671 14.7948 2.04544 14.4431C1.37181 14.1041 0.700293 13.6808 0.351786 13.0112C0.12059 12.5649 0 12.0705 0 11.5688C0 11.0672 0.12059 10.5727 0.351786 10.1264C0.698168 9.46101 1.37181 9.03777 2.04544 8.69875C2.74246 8.3471 3.69235 7.96596 4.87175 7.49639L20.1295 1.38986C21.8869 0.686552 22.9346 0.267518 24.0396 0.0990618L24.0056 0.10959ZM26.5982 2.18792C25.8447 2.07244 25.0778 2.07244 24.3244 2.18792C23.502 2.31426 22.6923 2.63012 20.7543 3.40291L5.66651 9.42521C4.42761 9.92005 3.56697 10.2675 2.96771 10.5707C2.3302 10.8929 2.21332 11.0613 2.19845 11.0887C2.12126 11.2376 2.081 11.4025 2.081 11.5699C2.081 11.7372 2.12126 11.9022 2.19845 12.051C2.21332 12.0784 2.3302 12.249 2.96771 12.569C3.57122 12.8744 4.43186 13.2218 5.66651 13.7145L20.7543 19.7368C22.6817 20.5075 23.4956 20.8255 24.3244 20.9518C25.0778 21.0673 25.8447 21.0673 26.5982 20.9518C27.4205 20.8255 28.2302 20.5096 30.1682 19.7389L45.256 13.7166C46.4949 13.2218 47.3577 12.8744 47.9548 12.5711C48.5923 12.249 48.7092 12.0805 48.7241 12.0531C48.8013 11.9043 48.8415 11.7393 48.8415 11.572C48.8415 11.4046 48.8013 11.2397 48.7241 11.0908C48.7092 11.0635 48.5923 10.895 47.9548 10.5728C47.3513 10.2675 46.4885 9.92216 45.256 9.42732L30.1682 3.40501C28.2408 2.63433 27.4269 2.31847 26.5982 2.19213V2.18792ZM30.827 21.7499L42.4722 17.0963V28.425C42.4722 31.394 40.5852 33.7313 37.3934 35.3738C34.2058 37.0246 29.8707 37.9006 25.4719 37.9006C21.0731 37.9006 16.738 37.0183 13.5504 35.3738C10.3629 33.7271 8.47157 31.394 8.47157 28.425V17.1173L20.0955 21.7709C21.8529 22.4742 22.9006 22.8933 24.0056 23.0617C24.9746 23.2091 25.9628 23.2091 26.9382 23.0617C28.0326 22.8933 29.0845 22.4742 30.8482 21.7731L30.827 21.7499Z" fill="#0F7378"/>
</svg>
