<svg width="18" height="18" viewBox="0 0 18 18" fill="none" xmlns="http://www.w3.org/2000/svg">
<path d="M14 14.714V17.15C14 17.2927 13.9523 17.4117 13.857 17.507C13.7617 17.6023 13.6427 17.65 13.5 17.65C13.3573 17.65 13.2383 17.6023 13.143 17.507C13.0477 17.4117 13 17.2927 13 17.15V13.923C13 13.6603 13.0883 13.4407 13.265 13.264C13.441 13.088 13.6603 13 13.923 13H17.15C17.2927 13 17.4117 13.0477 17.507 13.143C17.6023 13.2383 17.65 13.3573 17.65 13.5C17.65 13.6427 17.6023 13.7617 17.507 13.857C17.4117 13.9523 17.2927 14 17.15 14H14.689L17.804 17.116C17.8973 17.2093 17.944 17.3227 17.944 17.456C17.944 17.5893 17.8973 17.7053 17.804 17.804C17.7067 17.914 17.5877 17.966 17.447 17.96C17.307 17.9533 17.188 17.9013 17.09 17.804L14 14.714ZM9 18C7.75733 18 6.58867 17.7633 5.494 17.29C4.39933 16.816 3.447 16.174 2.637 15.364C1.82633 14.5533 1.18433 13.6007 0.711 12.506C0.237 11.4113 0 10.2427 0 9C0 7.75733 0.236667 6.58867 0.71 5.494C1.18333 4.39933 1.82567 3.447 2.637 2.637C3.44833 1.827 4.40067 1.18467 5.494 0.71C6.58933 0.236667 7.758 0 9 0C10.242 0 11.4107 0.236667 12.506 0.71C13.6007 1.184 14.553 1.82633 15.363 2.637C16.1737 3.447 16.8157 4.39933 17.289 5.494C17.763 6.58933 18 7.758 18 9C18 9.18 17.996 9.37 17.988 9.57C17.98 9.77 17.961 9.95967 17.931 10.139C17.9103 10.281 17.848 10.396 17.744 10.484C17.64 10.572 17.515 10.616 17.369 10.616C17.2437 10.616 17.1343 10.5633 17.041 10.458C16.9477 10.3527 16.911 10.2307 16.931 10.092C16.9643 9.91267 16.9843 9.73067 16.991 9.546C16.9977 9.36133 17.0007 9.17933 17 9C17 8.60267 16.9727 8.20833 16.918 7.817C16.8633 7.42567 16.7753 7.038 16.654 6.654H12.619C12.695 7.03867 12.7483 7.42633 12.779 7.817C12.811 8.20833 12.827 8.60267 12.827 9C12.827 9.18 12.8237 9.36867 12.817 9.566C12.8103 9.764 12.799 9.953 12.783 10.133C12.7623 10.275 12.7033 10.391 12.606 10.481C12.5087 10.571 12.3887 10.6157 12.246 10.615C12.1207 10.615 12.007 10.5643 11.905 10.463C11.803 10.3623 11.7623 10.2423 11.783 10.103C11.7997 9.92433 11.811 9.74067 11.817 9.552C11.823 9.36333 11.8263 9.17933 11.827 9C11.827 8.60267 11.8113 8.20833 11.78 7.817C11.7487 7.42633 11.6953 7.03867 11.62 6.654H6.38C6.30467 7.03867 6.25133 7.42633 6.22 7.817C6.18867 8.20767 6.173 8.602 6.173 9C6.173 9.398 6.18867 9.79233 6.22 10.183C6.25133 10.5737 6.30467 10.9613 6.38 11.346H9.885C10.027 11.346 10.1457 11.3937 10.241 11.489C10.3363 11.5843 10.3843 11.7033 10.385 11.846C10.3857 11.9887 10.3377 12.1077 10.241 12.203C10.1443 12.2983 10.0257 12.346 9.885 12.346H6.619C6.85767 13.204 7.17067 14.026 7.558 14.812C7.94533 15.598 8.426 16.3303 9 17.009C9.19267 17.009 9.385 17.0067 9.577 17.002C9.769 16.9973 9.955 16.9803 10.135 16.951C10.2643 16.931 10.3757 16.9667 10.469 17.058C10.5623 17.1493 10.609 17.26 10.609 17.39C10.609 17.536 10.5693 17.6577 10.49 17.755C10.4107 17.8523 10.3 17.9113 10.158 17.932C9.978 17.9613 9.788 17.9803 9.588 17.989C9.388 17.9977 9.192 18.0013 9 18ZM1.346 11.346H5.381C5.305 10.9613 5.25167 10.5737 5.221 10.183C5.189 9.79167 5.173 9.39733 5.173 9C5.173 8.60267 5.18867 8.20833 5.22 7.817C5.25133 7.42567 5.30467 7.038 5.38 6.654H1.347C1.22567 7.03867 1.13767 7.42633 1.083 7.817C1.02833 8.20767 1.00067 8.602 1 9C0.999333 9.398 1.02667 9.79233 1.082 10.183C1.13733 10.5737 1.22533 10.9613 1.346 11.346ZM7.727 16.896C7.22167 16.214 6.79267 15.4907 6.44 14.726C6.08667 13.9613 5.803 13.168 5.589 12.346H1.754C2.314 13.5547 3.121 14.5627 4.175 15.37C5.22833 16.1767 6.41233 16.6853 7.727 16.896ZM1.754 5.654H5.589C5.777 4.81933 6.04433 4.01933 6.391 3.254C6.73767 2.49 7.183 1.77333 7.727 1.104C6.40033 1.30133 5.213 1.80333 4.165 2.61C3.11833 3.41733 2.31467 4.432 1.754 5.654ZM6.619 5.654H11.381C11.155 4.796 10.839 3.98033 10.433 3.207C10.0263 2.43367 9.54867 1.69533 9 0.992C8.43867 1.66933 7.958 2.401 7.558 3.187C7.158 3.973 6.845 4.79533 6.619 5.654ZM12.412 5.654H16.246C15.686 4.432 14.8823 3.41433 13.835 2.601C12.7877 1.78767 11.6003 1.28867 10.273 1.104C10.7783 1.786 11.198 2.51267 11.532 3.284C11.866 4.05533 12.1593 4.84533 12.412 5.654Z" fill="#0F7378"/>
</svg>
