<svg width="38" height="42" viewBox="0 0 38 42" fill="none" xmlns="http://www.w3.org/2000/svg">
    <path d="M8.38575 40.75V35.0362C7.78977 29.0824 0.75 25.8945 0.75 16.7508C0.75 7.6111 6.20382 0.639334 17.1135 0.75133C24.9672 0.835328 32.3849 5.32318 32.3849 14.4669L36.7488 21.3226C36.7488 25.8945 32.3849 25.8945 32.3849 25.8945C32.3849 25.8945 33.4769 37.3221 23.6572 37.3221V40.75" stroke="#0F7378" stroke-width="1.5" stroke-linecap="round" stroke-linejoin="round"/>
    <path d="M16.7493 22.7506C18.3406 22.7506 19.8666 22.1185 20.9918 20.9933C22.117 19.8682 22.7491 18.3421 22.7491 16.7508C22.7491 15.1596 22.117 13.6335 20.9918 12.5083C19.8666 11.3832 18.3406 10.751 16.7493 10.751C15.1581 10.751 13.632 11.3832 12.5068 12.5083C11.3816 13.6335 10.7495 15.1596 10.7495 16.7508C10.7495 18.3421 11.3816 19.8682 12.5068 20.9933C13.632 22.1185 15.1581 22.7506 16.7493 22.7506Z" stroke="#0F7378" stroke-width="1.5" stroke-linecap="round" stroke-linejoin="round" stroke-dasharray="0.3 2"/>
</svg>
