<svg width="35" height="40" viewBox="0 0 35 40" fill="none" xmlns="http://www.w3.org/2000/svg">
    <path fill-rule="evenodd" clip-rule="evenodd" d="M6.66667 3.32889V0H10V3.32889H16.6667V6.65779H14.3633L10.12 15.1332L14.4 18.6951L12.2667 21.2517L7.98 17.6864L2.84667 22.8129L0.486666 20.4594L5.41 15.5459L2.26667 12.9294L4.4 10.3728L7.49 12.9427L10.6333 6.65779H0V3.32889H6.66667ZM28.3333 6.65779H21.6667V3.32889H28.3333C29.6594 3.32889 30.9312 3.85498 31.8689 4.79141C32.8065 5.72784 33.3333 6.99792 33.3333 8.32224V14.98H30V8.32224C30 7.8808 29.8244 7.45744 29.5118 7.1453C29.1993 6.83315 28.7754 6.65779 28.3333 6.65779ZM28.2333 19.4075L26.6667 19.9734L25.1 19.4075L26.6667 15.1032L28.2333 19.4075ZM30.1567 34.9534C30.3522 35.5437 30.5344 36.103 30.7033 36.6312C31.0133 37.5965 31.2667 38.4254 31.44 39.0546C31.5267 39.3675 31.59 39.6161 31.63 39.8003L31.6667 40V39.9467H35C35 39.6471 34.9367 39.3242 34.8867 39.0979C34.8179 38.785 34.7401 38.4742 34.6533 38.1658C34.4118 37.311 34.154 36.4608 33.88 35.6158C33.1379 33.3321 32.369 31.0572 31.5733 28.7916C30.5728 25.9205 29.555 23.0553 28.52 20.1964L28.2333 19.4075L26.6667 19.9734L25.1 19.4075L24.8133 20.1964C23.7797 23.0547 22.7619 25.9187 21.76 28.7883C20.9643 31.055 20.1954 33.331 19.4533 35.6158C19.1793 36.4619 18.9215 37.3132 18.68 38.1691C18.5933 38.4764 18.5155 38.7861 18.4467 39.0979C18.3809 39.3764 18.3429 39.6607 18.3333 39.9467H21.6667V40L21.7033 39.8003C21.7411 39.6161 21.8044 39.3675 21.8933 39.0546C22.0667 38.4221 22.32 37.5999 22.6267 36.6312L23.1767 34.9534H30.1567ZM29.03 31.6245C28.2584 29.3763 27.4706 27.1337 26.6667 24.8968C25.868 27.1355 25.0802 29.3781 24.3033 31.6245H29.03ZM0 31.6245V26.6312H3.33333V31.6245C3.33333 32.0659 3.50893 32.4893 3.82149 32.8014C4.13405 33.1136 4.55797 33.2889 5 33.2889H13.3333V36.6178H5C3.67392 36.6178 2.40215 36.0918 1.46447 35.1553C0.526784 34.2189 0 32.9488 0 31.6245Z" fill="#0F7378"/>
</svg>
