<svg width="45" height="40" viewBox="0 0 45 40" fill="none" xmlns="http://www.w3.org/2000/svg">
    <path d="M22.2382 40L32.4237 14.4631H34.8146L45 40H42.4735L39.6923 32.9193H27.5436L24.7647 40H22.2382ZM3.82128 33.3047L2.16656 31.6611L13.6094 20.2484C12.2756 18.8942 10.9489 17.2273 9.62917 15.2478C8.30944 13.2683 7.33172 11.4591 6.69601 9.82008H9.22016C9.79043 11.1201 10.6529 12.6137 11.8074 14.3006C12.9604 15.9892 14.1127 17.4246 15.2641 18.6071C17.2974 16.5548 19.1033 14.3037 20.6817 11.8537C22.2585 9.40221 23.3071 7.17663 23.8275 5.17702H0V2.85548H14.2918V0H16.629V2.85548H30.9232V5.17702H26.2558C25.5578 7.60689 24.3682 10.1946 22.687 12.9402C21.0058 15.6874 19.0823 18.1327 16.9165 20.2763L22.8412 26.3215L21.9414 28.7127L15.2641 21.906L3.82128 33.3047ZM28.3336 30.8207H38.9046L33.6179 17.3302L28.3336 30.8207Z" fill="#0F7378"/>
</svg>
